<?xml version="1.0" encoding="UTF-8"?>
<svg id="b" xmlns="http://www.w3.org/2000/svg" version="1.1" viewBox="0 0 1485 1485">
  <!-- Generator: Adobe Illustrator 30.0.0, SVG Export Plug-In . SVG Version: 2.1.1 Build 123)  -->
  <g id="c">
    <g>
      <polygon points="243.85004 481.10001 249.95001 0 .04999 0 .04999 714.09998 203.04999 714.09998 367.35004 349.5 330.54999 350.5 500.95001 714.09998 703.95001 714.09998 703.95001 0 454.04999 0 460.14996 481.10001 529.54999 282.60001 173.45001 282.60001 243.85004 481.10001"/>
      <polygon points="1241.09999 233 1234.90001 714.09998 1484.89998 714.09998 1484.89998 0 1281.90001 0 1117.59999 364.60001 1154.3 363.60001 984 0 781 0 781 714.09998 1030.90001 714.09998 1024.8 233 955.40001 431.5 1311.39998 431.5 1241.09999 233"/>
      <path d="M230.10001,1286h453.99997v-200H230.10001v200ZM0,1002h704v-217H0v217ZM0,1485h245v-700H0v700Z"/>
      <path d="M916,785v217h262.90002c45,0,61,19,61,50s-16,49-61,49h-262.90002v217h282.90002c176,0,286-103,286-266s-110-267-286-267h-282.90002ZM781,1485h245v-700h-245v700Z"/>
    </g>
  </g>
</svg>