<?xml version="1.0" encoding="UTF-8"?>
<svg id="b" xmlns="http://www.w3.org/2000/svg" version="1.1" viewBox="0 0 1485 1485">
  <style>
    g { fill: #000; }
    @media (prefers-color-scheme: dark) { g { fill: #fff; } }
  </style>
  <g id="c">
    <g>
      <polygon points="1024.8 561.1 1030.9 0 781 0 781 714.1 984 714.1 1148.3 429.5 1111.5 430.5 1281.9 714.1 1484.9 714.1 1484.9 0 1235 0 1241.1 561.1 1310.5 302.6 954.4 302.6 1024.8 561.1"/>
      <polygon points="460.3 153 454.1 714.1 704.1 714.1 704.1 0 501.1 0 336.8 284.6 373.5 283.6 203.2 0 .2 0 .2 714.1 250.1 714.1 244 153 174.6 411.5 530.6 411.5 460.3 153"/>
      <path d="M230.1,1286h454v-200H230.1v200ZM0,1002h704v-217H0v217ZM0,1485h245v-700H0v700Z"/>
      <path d="M916,785v217h262.9c45,0,61,19,61,50s-16,49-61,49h-262.9v217h282.9c176,0,286-103,286-266s-110-267-286-267h-282.9ZM781,1485h245v-700h-245v700Z"/>
    </g>
  </g>
</svg>