<svg id="b" data-name="Layer 2" xmlns="http://www.w3.org/2000/svg" viewBox="0 0 1444.830481 1456.286372">
  <style>
    polygon, path {
      fill: black;
    }
    @media (prefers-color-scheme: dark) {
      polygon, path {
        fill: white;
      }
    }
  </style>
  <g id="c" data-name="Layer 1">
    <g>
      <polygon points="984.733882 561.093413 990.854901 0 740.91329 0 740.91329 714.118889 943.927089 714.118889 1108.174433 429.491503 1071.448319 430.511673 1241.816682 714.118889 1444.830481 714.118889 1444.830481 0 1194.888869 0 1201.009889 561.093413 1270.381438 282.587046 914.342163 282.587046 984.733882 561.093413"/>
      <polygon points="460.170831 153.025476 454.049812 714.118889 703.991423 714.118889 703.991423 0 500.977624 0 336.73028 284.627386 373.456394 283.607216 203.088031 0 .074232 0 .074232 714.118889 250.015843 714.118889 243.894824 153.025476 174.523275 431.531843 530.56255 431.531843 460.170831 153.025476"/>
      <path d="M230,1257.286372h453.991423v-200H230v200ZM0,973.286372h703.991423v-217H0v217ZM0,1456.286372h245v-700H0v700Z"/>
      <path d="M875.91329,756.286372v217h262.91719c45,0,61,19,61,50,0,30-16,49-61,49h-262.91719v217h282.91719c176,0,286-103,286-266,0-164-110-267-286-267h-282.91719ZM740.91329,1456.286372h245v-700h-245v700Z"/>
    </g>
  </g>
</svg>
