<svg xmlns="http://www.w3.org/2000/svg" viewBox="0 0 1120.469899 1120.469899">
  <style>
    polygon { fill: #000; }
    @media (prefers-color-scheme: dark) { polygon { fill: #fff; } }
  </style>
  <polygon points="763.645425 1001.792136 768.392535 0 574.552189 0 574.552189 1120.469899 731.998021 1120.469899 859.37882 899.72926 830.896157 900.520445 963.024067 1120.469899 1120.469899 1120.469899 1120.469899 0 926.629553 0 931.376663 1001.792136 985.177249 560.23495 709.053654 560.23495 763.645425 1001.792136"/>
  <polygon points="356.824475 118.677763 352.077364 1120.469899 545.917711 1120.469899 545.917711 0 388.471878 0 261.091079 220.74064 289.573742 219.949454 157.445833 0 0 0 0 1120.469899 193.840347 1120.469899 189.093236 118.677763 135.29265 560.23495 411.416246 560.23495 356.824475 118.677763"/>
</svg>
