<?xml version="1.0" encoding="UTF-8"?>
<svg id="Layer_1" xmlns="http://www.w3.org/2000/svg" version="1.1" viewBox="0 0 1485 1484">
  <style>
    polygon { fill: #111111; }
    @media (prefers-color-scheme: dark) { polygon { fill: #ffffff; } }
  </style>
  <polygon points="243.50005 1152 249.60002 0 -.3 0 -.3 1484 202.7 1484 366.90007 1020.40002 330.2 1021.40002 500.50005 1484 703.60002 1484 703.60002 0 453.60002 0 459.7 1152 529.10002 824.5 173.10002 824.5 243.50005 1152"/>
  <polygon points="1241.50001 470.20001 1235.40001 1484 1485.3 1484 1485.3 0 1282.3 0 1118.10002 464.60001 1154.8 463.60001 984.40001 0 781.40001 0 781.40001 1484 1031.40001 1484 1025.20001 470.20001 955.90001 659.5 1311.90004 659.5 1241.50001 470.20001"/>
</svg>