<?xml version="1.0" encoding="UTF-8"?>
<svg id="Layer_1" xmlns="http://www.w3.org/2000/svg" version="1.1" viewBox="0 0 1485 1484">
  <style>
    polygon { fill: #000; }
    @media (prefers-color-scheme: dark) { polygon { fill: #fff; } }
  </style>
  <polygon points="1024.9 1331 1031 0 781.1 0 781.1 1484 984.1 1484 1148.3 1199.4 1111.6 1200.4 1281.9 1484 1485 1484 1485 0 1235 0 1241.1 1331 1310.5 824.5 954.5 824.5 1024.9 1331"/>
  <polygon points="459.5 153 453.4 1484 703.3 1484 703.3 0 500.3 0 336.1 284.6 372.8 283.6 202.4 0 -.6 0 -.6 1484 249.4 1484 243.2 153 173.9 659.5 529.9 659.5 459.5 153"/>
</svg>