<svg xmlns="http://www.w3.org/2000/svg" viewBox="0 0 1485 1485">
  <style>
    path, polygon { fill: #000; }
    @media (prefers-color-scheme: dark) { path, polygon { fill: #fff; } }
  </style>
  <polygon points="243.85004 481.10001 249.95001 0 .04999 0 .04999 714.09998 203.04999 714.09998 367.35004 349.5 330.54999 350.5 500.95001 714.09998 703.95001 714.09998 703.95001 0 454.04999 0 460.14996 481.10001 529.54999 282.60001 173.45001 282.60001 243.85004 481.10001"/>
  <polygon points="1241.09999 233 1234.90001 714.09998 1484.89998 714.09998 1484.89998 0 1281.90001 0 1117.59999 364.60001 1154.3 363.60001 984 0 781 0 781 714.09998 1030.90001 714.09998 1024.8 233 955.40001 431.5 1311.39998 431.5 1241.09999 233"/>
  <path d="M0.0 771.0H249.97101449275362V1485.0H0.0ZM0.0 1260.6H704.0V1485.0H0.0ZM454.0289855072464 771.0H704.0V1080.06H454.0289855072464ZM0.0 771.0H704.0V995.4H0.0ZM340.7768115942029 1321.8V1147.38H704.0V1372.8Z"/>
  <path d="M781.0 771.0H1030.9710144927535V1193.28H781.0ZM781.0 1260.6H1485.0V1485.0H781.0ZM1235.0289855072465 873.0H1485.0V1485.0H1235.0289855072465ZM883.0289855072464 771.0H1485.0V995.4H883.0289855072464Z"/>
</svg>
