<?xml version="1.0" encoding="UTF-8"?>
<svg fill="currentColor" id="b" data-name="Layer 2" xmlns="http://www.w3.org/2000/svg" viewBox="0 0 3188.99239 500">
  <g id="c" data-name="Layer 1">
    <g>
      <g>
        <path d="M993.11418,306.55428c0,43.51651-35.13677,72.85119-88.00403,72.85119h-150.53985v-244.98959h140.54709c49.96541,0,83.16815,26.11023,83.16815,66.08288,0,19.01931-9.02655,34.49156-25.14401,45.12954,25.14401,11.9268,39.97265,33.52535,39.97265,60.92599ZM813.56226,231.44486h78.65488c15.14965,0,25.14401-9.02655,25.14401-23.53258,0-13.86083-9.67176-22.88737-25.14401-22.88737h-78.65488v46.41996ZM932.18819,302.68462c0-15.47225-11.9268-25.78762-29.97829-25.78762h-88.64765v51.89945h88.64765c18.05149,0,29.97829-10.31537,29.97829-26.11182Z"/>
        <path d="M1250.99679,328.79644v50.60903h-200.50527v-244.98959h58.99196v194.38057h141.51331Z"/>
        <path d="M1544.34197,373.60338v5.8021h-62.86002l-18.05149-35.78039h-114.11426l-18.05149,35.78039h-62.85843v-5.8021l135.066-245.6348h5.8021l135.0676,245.6348ZM1438.28644,293.01446l-31.91232-63.50364-31.91392,63.50364h63.82624Z"/>
        <path d="M1561.75305,255.94366c0-74.78682,52.54306-124.75064,130.87534-124.75064,34.81576,0,70.27355,9.67016,91.22689,25.14241v58.99196c-19.66292-19.01931-50.93163-31.26871-79.6211-31.26871-48.67659,0-80.91152,29.01207-80.91152,72.53018,0,43.84071,32.55753,73.17379,81.87774,73.17379,27.40065,0,60.28078-13.53822,81.87933-33.84635v59.63557c-22.24376,16.44007-60.28078,27.07804-94.45134,27.07804-78.33228,0-130.87534-50.61062-130.87534-126.68626Z"/>
        <path d="M1848.00252,134.41588h58.99196v244.98959h-58.99196v-244.98959ZM2088.48043,373.60338v5.8021h-68.66212l-106.05393-122.17299v-5.8021l104.76511-117.01451h64.14885v5.8021l-101.54225,111.53502,107.34435,121.85039Z"/>
        <path d="M2472.4025,134.41588v5.8021l-101.86326,245.6348h-5.48109l-78.33228-148.92843-81.23253,148.92843h-5.80369l-101.86326-245.6348v-5.8021h61.89221l50.60903,127.00727,73.819-133.45458h5.48109l73.819,133.45458,50.60903-127.00727h58.34675Z"/>
        <path d="M2515.27699,134.41588h58.99196v244.98959h-58.99196v-244.98959Z"/>
        <path d="M2885.98025,134.41588v251.4369h-5.8021l-176.00487-142.80373v136.35642h-57.38053V127.96857h5.80369l176.00487,142.80373v-136.35642h57.37894Z"/>
        <path d="M3188.99239,228.86562v128.6203c-24.5004,15.15125-67.05069,25.14401-106.05553,25.14401-83.16815,0-138.29045-50.61062-138.29045-126.68626,0-74.78682,55.1223-124.75064,138.29045-124.75064,39.32744,0,79.30009,10.31537,102.83108,26.43283v58.66776c-21.91956-19.34032-58.34675-32.23493-91.22689-32.23493-53.18827,0-88.64765,29.01207-88.64765,72.53018,0,43.84071,34.81417,73.17379,86.71361,73.17379,11.9268,0,24.8214-2.25664,37.39341-5.8021v-44.48433h-59.95818v-50.61062h118.95014Z"/>
      </g>
      <path d="M579.48006,170.72202c-1.62321-56.3671-42.17369-91.23966-115.16772-102.18896L0,0v4.05691l56.36471,102.59531,405.10987,33.25175c29.19713,2.43371,44.6073,21.8961,44.6073,41.76724,0,20.68164-15.81662,41.36328-48.25786,41.36328l-334.54946.40405v4.05691l49.47482,90.02281,227.08672-15.00382c56.367-4.05452,66.90985,77.4528,5.67782,86.37474l-175.18309,28.38673v4.05452l43.39054,78.66955,160.98967-37.71272c97.82451-22.99537,125.20869-129.13724,49.06607-179.84179v-3.33804c53.76401-4.52236,97.59833-53.79016,95.70293-108.38543Z"/>
    </g>
  </g>
</svg>