<?xml version="1.0" encoding="UTF-8"?>
<svg fill="currentColor" id="b" data-name="Layer 2" xmlns="http://www.w3.org/2000/svg" viewBox="0 0 1953.76354 400">
  <defs>
    <style>
      .d {
        fill: currentColor;
      }
    </style>
  </defs>
  <g id="c" data-name="Layer 1">
    <g>
      <path class="d" d="M196.05736,399.28317C84.22939,399.28317,0,312.18638,0,204.65949,0,96.77419,79.92832,8.96057,196.05736,8.96057c61.64874,0,104.30107,18.638,137.63442,61.29033l-53.76344,44.08603c-22.58066-23.65591-49.8208-35.48388-83.87098-35.48388-75.62724,0-117.20431,56.98925-117.20431,125.80645s45.51972,124.7312,117.20431,124.7312c33.69176,0,62.3656-11.82797,84.94623-35.48388l53.04661,45.87815c-31.89965,40.86022-75.62726,59.4982-137.99284,59.4982Z"/>
      <path class="d" d="M565.59139,112.90322h72.40142v279.5699h-72.40142v-40.86022c-15.05375,29.03225-40.14336,48.3871-88.17207,48.3871-76.70252,0-137.99284-65.59141-137.99284-146.23657s61.29032-146.23656,137.99284-146.23656c47.67026,0,73.11826,19.35484,88.17207,48.3871v-43.01074ZM567.74194,253.76345c0-43.72759-30.46595-79.92832-78.4946-79.92832-46.23654,0-76.3441,36.55914-76.3441,79.92832,0,42.29392,30.10751,79.9283,76.3441,79.9283,47.67021,0,78.4946-36.55913,78.4946-79.9283Z"/>
      <path class="d" d="M689.2473,0h72.40142v392.11471h-72.40142V0Z"/>
      <path class="d" d="M793.90685,355.19713c0-22.93907,18.63798-42.29392,44.08603-42.29392s43.36914,19.35484,43.36914,42.29392c0,23.65591-18.27959,43.01075-43.3692,43.01075s-44.08598-19.35482-44.08598-43.01075Z"/>
      <path class="d" d="M1158.42292,347.31184c-26.88172,32.25807-67.74192,52.68816-116.12901,52.68816-86.37995,0-149.82075-65.59141-149.82075-146.23657s63.44091-146.23656,149.82075-146.23656c46.59498,0,87.09673,19.35484,113.97845,49.82078l-55.914,46.23657c-13.97847-17.2043-32.25807-30.10753-58.06456-30.10753-46.23654,0-76.34404,36.55913-76.34404,79.9283s30.10751,79.92833,76.34404,79.92833c27.95695,0,47.31187-14.33692,61.64879-33.69176l54.48033,47.67029Z"/>
      <path class="d" d="M1164.51616,253.76345c0-80.64516,63.44091-146.23656,149.82075-146.23656s149.82075,65.5914,149.82075,146.23656-63.44091,146.23655-149.82075,146.23655c-86.37984-.35842-149.82075-65.59138-149.82075-146.23655ZM1390.68106,253.76345c0-43.72759-30.10751-79.92832-76.34404-79.92832-46.23665-.35843-76.34415,36.2007-76.34415,79.92832,0,43.36917,30.10751,79.9283,76.34404,79.9283s76.34415-36.55913,76.34415-79.9283Z"/>
      <path class="d" d="M1953.76354,221.50539v170.60932h-72.40148v-153.04659c0-48.3871-22.93916-69.17563-57.34767-69.17563-32.25807,0-55.19711,15.77062-55.19711,69.17563v153.04659h-72.40148v-153.04659c0-48.3871-23.29749-69.17563-57.34767-69.17563-32.25807,0-60.57346,15.77062-60.57346,69.17563v153.04659h-72.40148V112.5448h72.40148v38.70968c15.05381-30.10752,42.29386-45.1613,84.22939-45.1613,39.78497,0,73.11826,19.35484,91.39785,51.97133,18.27959-33.33333,45.1612-51.97133,93.90686-51.97133,59.49812.35843,105.73477,44.80288,105.73477,115.41221Z"/>
    </g>
  </g>
</svg>