<?xml version="1.0" encoding="UTF-8"?>
<svg id="b" data-name="Layer 2" xmlns="http://www.w3.org/2000/svg" viewBox="0 0 2362.29213 400">
  <g id="c" data-name="Layer 1" fill="currentColor">
    <path d="M963.15995,64.20961l114.42798,279.82468c10.99315,26.98335,9.74439,34.22821-7.49562,34.22821-11.49267,0-13.74144,11.99215,0,11.99215h85.94615c9.49362,0,8.49458-11.99215-.99904-11.99215-16.73945,0-25.73362-9.99411-42.47307-50.96769L985.14624,17.23899c-7.74534-18.98825-28.23211-20.48678-37.72671,2.49853l-129.41922,312.30365c-16.48972,39.72478-30.73068,46.22136-44.22232,46.22136-11.74239,0-11.74239,11.99215,0,11.99215h88.44464c9.74439,0,9.99411-11.99215-.49952-11.99215-11.74239,0-33.22917-7.9951-17.73849-44.9716l111.92949-269.0813c2.49856-5.74632,4.99706-5.74632,7.24582-.00003ZM2235.36173,245.34576c0,11.99217,11.99219,10.99315,11.99219,0v-88.94418c0-10.99314-11.99219-10.99314-11.99219,0,0,29.23212-28.23211,33.97845-65.7091,33.97845h-90.19292v21.98628h90.9432c36.7267,0,64.95881,6.24584,64.95881,32.97945ZM2026.99238,390.75517h299.06275c10.99315,0,18.48869-1.99901,20.98726-13.24192,3.24781-15.74044,1.99897-27.23311,14.7404-46.47112,2.49856-3.74733-4.74733-12.24191-9.74431-5.49657-23.23513,30.9804-56.46423,45.72088-225.85796,45.72088-29.48184,0-29.48184-17.23897-29.48184-44.47208V73.95397c0-27.98237,0-44.72184,29.48184-44.72184,135.91484,0,169.64353,15.23996,192.62872,45.72086,4.99713,6.74535,13.74136-1.99902,10.99315-5.74633-13.49171-18.23898-12.24198-30.98041-15.23999-46.22135-2.24877-10.99314-9.49362-13.24192-20.98726-13.24192h-266.58275c-11.49259,0-10.4937,11.74241,0,11.74241,23.73562,0,31.98041,23.98531,31.98041,52.46719v252.84132c0,27.73263-8.24479,51.96766-31.98041,51.96766-10.4937,0-11.49259,11.99215,0,11.99215v.00104ZM1692.95136,368.51911c-28.48191.24976-32.72965-17.23897-32.72965-53.46622V86.44565c0-36.72674,4.74733-54.46621,32.72965-54.71596l47.96965-.24976c120.6738-.74927,206.12043,50.46817,206.12043,168.39471,0,119.1753-80.6993,167.64446-206.12043,168.39471l-47.96965.24976ZM1590.01597,390.25468h138.91285c160.39955,0,260.08714-53.46622,260.08714-189.381,0-137.66406-104.43492-191.13027-260.08714-191.13027h-139.41229c-10.99315,0-10.99315,11.74241,0,11.74241,28.23211,0,32.97945,28.23212,32.97945,65.95886v234.10286c0,32.47993-6.74541,56.71403-32.47985,56.71403-11.49259,0-12.99212,11.99215,0,11.99215l-.00015.00097ZM1059.84945,274.07836l-7.99514-21.98628h-188.63174l-8.49458,21.98628h205.12147ZM426.99636,390.25468h295.56418c11.99219,0,19.23801-1.74925,21.48678-13.24192,2.99801-15.74044,2.99801-27.23311,14.9902-46.22136,3.24781-5.24681-5.24685-12.49167-9.99411-5.99609-22.98534,31.23016-55.46527,43.22332-221.86091,45.9716-28.48187.49952-29.48188-17.23897-29.48188-49.21937V86.44565c0-36.72674,5.24681-64.95886,31.98041-64.95886,11.74243,0,10.99315-11.74241,0-11.74241h-102.68559c-10.99315,0-10.99315,11.74241,0,11.74241,29.23212,0,32.97945,28.23213,32.97945,65.95886v234.10286c0,32.47993-6.74534,56.71403-32.97945,56.71403-10.99315,0-11.99215,11.99215,0,11.99215h.00093ZM218.12761,399.99903c78.70029,0,119.17532-24.73459,147.90695-39.72478v-48.71989c0-12.49167-13.9912-10.99315-17.23897,0-12.49167,42.97259-64.45935,65.20861-128.9187,65.20861-104.18511,0-178.13809-74.20372-178.13809-174.39079-.00101-101.68559,69.70516-179.38686,177.88733-179.38686,59.4623,0,106.68268,29.23212,122.42312,66.45837,3.49757,7.9951,18.73849,9.49363,18.73849-1.49951v-47.96964C331.55562,25.23409,290.58206,0,220.87589,0,81.21281,0-1.23479,95.94027.01399,201.87367c1.49951,114.42802,96.93928,198.12536,218.11362,198.12536ZM1356.66231,399.99903c106.93244,0,161.39859-60.71204,161.39859-142.66014V86.44565c0-36.72674,3.74725-64.95886,32.72965-64.95886,10.99315,0,10.99315-11.74241,0-11.74241h-89.19388c-11.49259,0-11.99219,11.74241,0,11.74241,27.73267,0,32.47985,28.23213,32.47985,65.95886v172.14202c0,72.45447-43.9726,116.17727-137.41332,116.17727-84.69634,0-133.41627-40.2243-133.41627-130.16847V86.44565c0-36.72674,5.24685-64.95886,31.98041-64.95886,11.74239,0,10.99315-11.74241,0-11.74241h-102.68559c-10.99315,0-10.99315,11.74241,0,11.74241,29.23212,0,32.97945,28.23213,32.97945,65.95886v169.39373c0,90.44368,71.95491,143.16062,171.14305,143.16062l-.00194-.00097Z"/>
  </g>
</svg>