<?xml version="1.0" encoding="UTF-8"?>
<svg id="b" data-name="Layer 2" xmlns="http://www.w3.org/2000/svg" viewBox="0 0 1815.74297 500">
  <g id="c" data-name="Layer 1">
    <g id="d" data-name="Overlaps removed">
      <path d="M1120.41386,140.01638c16.88975-22.33095,18.12384-51.3889,16.14837-62.59236-4.16204-23.60405-21.42424-41.13806-46.21761-49.62729,7.1693-7.50615,14.47555-13.4202,21.5903-17.48609,8.49176-4.9297,5.68043-13.79502-2.81133-8.8653-11.65765,6.65156-22.03999,14.30752-31.3513,22.96028-14.72541-2.98499-31.40978-3.15685-49.16601-.02596-94.11645,16.59528-170.45996,107.44116-156.58611,186.12372,6.02979,34.19664,29.38308,46.3046,54.55432,42.17827,21.53976-3.48601,38.61324-19.91399,45.36314-43.57063,1.46051-5.87414-3.00724-8.20671-5.14389-4.39758-13.817,24.27869-25.47758,30.70326-41.21409,33.47802-19.368,3.41512-34.63959-8.86975-39.33535-35.50074-10.19195-57.80142,42.35164-149.13125,141.91533-166.68702,15.10709-2.66378,27.87133-2.45908,38.57837-.3247-29.37843,32.93007-46.82334,77.88015-60.75937,134.66608-12.36092,50.23283-26.06549,161.86125-81.74851,171.67971-12.85335,2.26637-24.57775-2.36044-26.22162-15.21179,12.89547,6.15443,28.95639-2.90158,26.10179-19.09084-1.76092-9.98667-10.17959-18.79934-23.19246-16.50482-21.78902,3.84201-29.44604,22.35402-26.67128,38.09051,3.52184,19.97326,23.17271,30.5498,51.31686,25.58726,43.57802-7.68399,93.90963-65.54817,107.7231-192.48549,5.55706-50.58062,24.70199-94.11162,46.83891-122.69157,22.49017,9.36392,32.63285,28.35103,35.00376,41.79723,2.63927,14.96796.40985,36.46736-10.07324,52.6391-9.21183-2.07328-20.23922-2.36129-33.38641-.04308-14.526,2.56134-24.13984,11.74534-22.37895,21.73197,1.54746,8.77614,12.35206,13.42371,25.06233,11.18255,12.64162-2.22906,22.84971-6.67124,31.0637-12.463,10.6385,10.96504,15.52009,28.90406,18.24072,44.33373,8.11087,45.99903-28.97683,104.6483-61.5186,114.75475-15.6656,4.94652-26.32762-.6623-28.1419-10.95154-1.97438-11.19714,5.91368-26.62955,23.89426-37.9129,7.03204-4.36029,2.11988-10.98295-5.12556-7.83317-20.52592,9.23588-36.69226,30.8085-33.17046,50.78176,3.46849,19.67062,18.82999,25.38691,37.8954,22.02514,38.43339-6.77682,102.70476-75.83592,89.57797-150.28171-2.28572-12.96286-9.79529-29.86319-26.65457-39.46248ZM1072.68117,155.77531c-5.44726.9605-12.12257.26534-12.70955-3.06354-.58694-3.32888,6.6585-6.47866,13.01365-7.59923,8.13094-1.43371,14.96252-.72722,20.7215,1.52733-5.71157,4.41952-12.66285,7.66087-21.02561,9.13544Z"/>
      <path d="M1806.76488,124.93934c-3.33184,21.80581-6.10956,27.28814-12.92884,38.16364-7.78062,10.73294-15.95219,17.4784-25.03093,19.07923-9.38138,1.65418-12.42446-4.98604-10.41137-16.57422,6.62714-36.74044,17.86377-66.80484,28.38775-92.06305,3.06281-7.40481-3.07819-10.37844-6.35444-4.18414-2.38588,4.16512-8.99104,10.9464-12.87182,11.94272-5.14462.90714-8.20668,3.00724-10.61086,10.60793l-1.05752,3.43526c-2.89926-12.78125-11.41653-21.20593-27.77812-18.32094-16.34178,2.8815-38.55988,20.21662-57.07777,54.99727-6.5525,12.38862-12.80243,24.72386-23.75254,42.25637-13.19345,20.73638-26.31449,33.03508-45.07726,36.34346-15.13129,2.66804-30.4211-6.18121-33.72953-24.94396-5.70962-32.3809,19.5911-71.16584,40.47221-74.84776,18.15748-3.20166,21.46659,10.25639,19.66769,17.75039-.53431,2.27844.9963,3.88076,3.75579,1.83403,20.77586-14.89658,13.12472-38.82225-12.90101-34.23321-22.99953,4.05544-45.9479,24.32763-59.81896,53.60841-7.92391,16.99891-16.7205,37.89609-26.12161,53.5953-7.95895,13.26069-18.23138,22.24878-28.21805,24.00968-9.98659,1.76092-15.04133-3.90051-12.92149-14.88347,5.66513-31.57827,16.22272-42.48882,18.98514-65.75441,3.27842-22.10843-12.34989-29.33784-22.94177-27.4702-19.44,3.42779-33.69269,17.31128-47.82152,44.99033l10.90052-33.17558c2.35084-7.90334-4.07517-8.9545-5.85583-4.8961-2.72438,5.78496-9.52543,13.22484-14.95513,16.05446-7.44137,3.80839-7.45967,7.24398-9.61456,14.4887l-5.04011,17.42654c-6.10881,21.98342-32.55062,73.76299-57.06329,78.08522-9.07874,1.60084-12.05085-2.86764-10.03776-14.45584,6.62714-36.74044,17.86377-66.80484,28.38775-92.06305,3.06273-7.40481-3.07819-10.37844-6.35444-4.18414-2.38588,4.16512-8.9377,11.24902-12.87182,11.94272-5.14462.90714-8.20668,3.00724-10.25488,10.8572l-.90253,2.87298c-3.00196-12.66253-11.66531-20.93914-27.98653-18.06129-16.34171,2.8815-40.53568,19.62891-61.79626,63.63012l-14.17369,29.33415c-12.58895,25.93437-26.06602,37.98379-37.86839,40.06487-6.9604,1.2273-11.2322-1.76386-12.56625-9.32949-1.7609-9.98663,2.79895-30.13678,12.62995-64.63383l45.52117-155.9308c1.31796-4.91291-3.48819-5.62563-5.5715-1.51387-2.3684,6.03422-8.63506,11.19566-14.06476,14.02526-7.44137,3.80839-7.51301,6.94136-9.31199,14.43536l-37.39995,127.66388c-12.68036,43.11236-17.89884,63.0666-15.81775,74.86897,2.56128,14.52602,10.03701,19.76055,24.91899,17.4485,20.34241-2.99896,42.09195-23.1409,56.20102-52.56526-.39368,24.59135,12.09459,41.14696,31.66704,37.69582,16.80186-2.96262,29.31781-12.92164,41.82525-34.49613-.53064,16.15722,7.85549,25.42405,22.88317,22.77426,22.92804-4.04283,42.18581-26.11167,56.21133-50.04588l-10.71011,37.34227,22.09168-3.89536,9.34995-31.91596c13.16134-45.69344,37.03804-85.47546,54.28774-88.51704,8.47346-1.4941,13.93752,4.71922,11.22995,17.67801-3.77628,17.5157-13.1957,36.65051-16.9719,54.16621-6.05622,27.59076,2.52182,42.61604,22.49501,39.09423,20.88119-3.68192,34.16309-20.37745,47.35653-41.11382,2.23141-3.55196,4.43708-7.24689,6.60591-11.02977.13999,1.28195.30969,2.46998.49778,3.53652,4.05544,22.99952,22.7092,35.00002,40.56411,31.85171,29.35465-5.17601,46.92665-22.31596,63.59231-49.90527,2.68079-4.44193,4.93913-8.32178,6.93646-11.88743-2.95958,26.49025,7.34976,48.37264,32.11451,44.00595,16.04409-2.829,28.42399-13.58113,40.83442-36.97729-2.6372,22.62466,10.42173,30.74776,24.71028,28.22831,16.64435-2.93486,31.04686-13.27526,42.70887-30.30924,8.42162-12.40616,13.6036-25.48921,15.72494-47.08157.98025-8.59777-7.61752-9.57802-8.90041-.92689ZM1287.43516,267.68478c-19.06541,3.36174-22.79919-28.43143-7.45007-61.71726,12.87407-27.85683,25.90675-44.19638,39.82746-46.65098,17.24963-3.04158,23.58351,20.49229,12.96965,52.31907-12.09189,35.83182-31.42629,53.59457-45.34704,56.04917ZM1697.79492,195.32729c-19.67069,3.46846-24.79333-25.58355-8.35792-61.55718,12.874-27.85683,27.63325-43.25269,41.55396-45.70729,17.24963-3.04158,21.19839,19.35269,11.24315,51.37538-7.35517,23.76338-28.7027,53.11431-44.43919,55.88909Z"/>
      <path d="M542.77932,286.34337c-28.14413,4.96256-54.47549,30.82382-68.14993,54.14126-5.17217,8.9299-9.85626,16.97647-14.18812,24.21768-13.87051,3.99984-22.29154,16.7397-20.09335,30.83897-12.81467,17.03147-24.06953,25.12786-40.31648,27.99264-14.82863,2.61466-24.13763-4.16883-26.91239-19.90533-1.52038-8.62249-1.11283-18.08644.7042-27.4455,35.83291-5.59757,77.03513-25.40068,71.61527-56.13811-1.60082-9.07878-11.46171-15.45291-22.65886-13.47857-25.11788,4.42897-46.00124,24.02502-65.81887,60.28297-29.09447,54.43156-46.15039,72.72866-63.70266,75.82358-10.59188,1.86762-18.42359-3.61618-20.34455-14.5107-5.97647-33.89398,29.41759-73.83461,54.75112-92.96721,6.62268-4.91216,1.14106-12.9946-5.53492-8.38508-24.49662,16.80077-46.8565,29.79244-53.227,13.12975-3.06056-8.50932-13.86588-7.85219-15.80739.60303-1.14035,7.68992-4.63004,12.67372-7.40776,18.15606-19.19482,38.02035-68.62004,106.33388-137.61857,118.50019-33.89402,5.9764-69.79602-13.59193-78.44046-62.61723-21.71799-123.16841,68.02953-212.32134,140.05433-225.02125,13.51177-2.3825,25.85393-1.43838,36.20243,2.60669-14.80666,12.99998-25.76443,27.40797-36.42255,43.92519-24.30362,37.36101-11.0649,75.27907,13.94476,80.85432,46.67296,9.86824,82.74613-49.2262,75.43568-90.68584-3.33222-18.89783-11.41334-32.92485-22.71854-42.12935,10.71945-6.54526,23.20904-13.07707,38.00047-19.85174,6.6402-3.04306,3.1169-12.40691-5.03643-9.09705-17.40155,7.03474-31.5979,14.35654-43.57373,22.15622-12.2126-5.99883-26.86434-7.78231-42.71029-5.38184C99.5653,184.76229-19.82413,296.92786,2.80096,425.24089c10.03183,56.89355,54.92266,81.42963,101.52694,73.21204,73.5379-12.96673,130.74437-97.31786,149.93919-135.33825.36536-.63781.69903-1.2689,1.00913-1.88803,4.86306,3.03362,11.23966,4.40876,19.15934,3.01232,5.11952-.90275,9.33014-2.44304,13.91419-4.36431-27.6918,24.15999-45.29138,51.15914-40.92835,75.90292,3.20164,18.15752,17.93962,27.41609,37.91288,23.89429,22.46653-3.96147,42.12399-19.80686,63.32597-57.03159-.22177,4.6246-.02663,9.00421.62156,12.68029,3.73524,21.18376,16.85338,30.10394,38.03715,26.36862,21.61773-3.81176,39.99221-17.95095,55.71871-36.12276,9.41224,24.00075,34.82479,22.02971,50.82289,19.20882,35.40713-6.24322,56.43377-32.10521,50.83086-63.88088-2.77476-15.7365-11.06842-27.37952-13.89656-43.41866-1.54748-8.77614,4.50651-20.45277,13.28265-22.00023,7.56562-1.33406,5.35954-10.30608-1.29821-9.13212ZM236.41316,231.77609c9.05383,49.57717-26.17863,79.81626-48.41135,74.06343-21.5741-5.55694-29.43863-30.69313-9.74603-64.12075,9.84735-16.72078,21.18004-30.70449,38.05156-43.94254,10.27618,7.32148,17.42027,18.76931,20.10583,33.99986ZM412.1505,320.60999c7.86825-1.3874,11.08965,2.72509,11.94343,7.56711,2.80261,15.89446-15.55468,29.58515-47.58631,37.3313,7.00108-22.63661,21.46933-42.39925,35.64287-44.89841ZM491.2276,413.38225c-16.64438,2.93482-29.31807-1.69522-31.45251-13.80023-.272-1.54255-.37164-3.39786.05709-5.55529,11.53047,5.39204,24.08857-4.38749,21.96585-16.42588-1.12497-6.38009-4.85342-11.14352-9.97849-13.03699,3.74692-6.28185,7.28943-12.53861,10.64154-18.59539,8.06348-13.5746,24.74428-36.34779,42.40731-45.87521-16.14074,21.47016-15.94605,36.43264-5.20565,63.96626,11.49532,29.80051-11.48814,46.3345-28.43515,49.32273Z"/>
      <path d="M792.82728,309.96459c-.78804,34.46269-15.79578,44.90981-27.59815,46.99091-11.80239,2.0811-14.27601-3.09938-12.51214-14.33158,5.66588-36.88297,17.61449-66.44886,28.13843-91.70707,3.06281-7.40481-3.07813-10.37844-6.3544-4.18414-2.38591,4.16512-9.15114,10.03853-13.08526,10.73221-5.14462.90714-7.69063,4.16439-10.04147,12.06771l-1.15575,3.72845c-2.90959-13.05927-11.33881-21.80753-27.43059-18.97011-16.34176,2.8815-41.33687,20.39423-59.8548,55.17487l-21.705,39.7111c-14.40471,26.25455-25.0156,36.86248-36.21273,38.83686-7.263,1.28064-11.53484-1.71052-12.86886-9.27613-1.76092-9.98667,1.58846-29.92332,11.72206-64.47375l7.90437-27.29261,40.32344-7.1101c7.56564-1.33402,6.85514-12.44198-.71049-11.10794l-36.18456,6.38032,20.47518-70.69768c1.31796-4.91291-3.18558-5.67899-4.96625-1.62059-3.027,5.83832-8.9377,11.24902-14.67003,14.13198-7.13874,3.75503-7.21039,6.888-9.31197,14.43536l-14.02605,47.71812-18.18312,3.20618c-7.56562,1.33402-6.85514,12.44194.71049,11.10796l13.99032-2.46688-6.481,22.04905c-12.98297,43.16576-16.68833,62.85318-14.60725,74.65555,2.13444,12.10501,11.95951,20.04566,25.88026,17.59106,18.46014-3.25505,38.8625-20.26998,57.23789-54.08942l2.49352-4.59072c-2.3147,26.04321,8.34995,46.98761,31.41213,42.92107,17.3433-3.05808,29.37811-14.94032,42.13749-38.27445-2.07251,21.26144,11.61011,29.10936,27.21704,26.35745,21.48638-3.78865,49.9361-30.0234,47.41355-67.33475-.74631-9.54148-8.84555-11.2337-9.0963-.26828ZM693.68458,372.37903c-19.36802,3.41512-26.60903-25.26339-9.87104-61.29038,12.9274-27.55421,27.72241-44.51654,41.64318-46.97114,17.85488-3.1483,21.71441,20.50983,11.15391,52.63923-8.20966,24.22608-29.30793,53.22103-42.92606,55.62229Z"/>
    </g>
  </g>
</svg>