<?xml version="1.0" encoding="UTF-8"?>
<svg fill="currentColor" id="b" data-name="Layer 2" xmlns="http://www.w3.org/2000/svg" viewBox="0 0 2772.37559 400">
  <g id="c" data-name="Layer 1">
    <path d="M.55249,7.18231v.55253c6.62984,12.70718,11.04972,28.17673,14.36464,54.69607,11.60221,82.32048,11.04972,187.29282-.55249,276.24308-3.31491,27.07181-7.73481,42.54142-14.36464,54.69614v.55246h175.13813c128.1768,0,183.42543-96.68504,181.21546-203.31489C353.59116,60.77347,300.55249,7.18231,175.13813,7.18231H.55249ZM2771.82307,7.18231h-87.84535c-38.1214,0-63.53577,18.78458-63.53577,51.38125,0,47.51376,51.93378,81.76788,51.93378,152.48617,0,22.65193-1.10506,37.01656-13.25985,37.01656-9.94468,0-16.57446-7.18231-29.83431-31.49169-38.67393-71.8232-61.32593-124.30944-89.50266-209.39229l-170.71822.55253v.55239c6.62979,12.70718,11.04973,28.17686,14.36463,54.69621,11.60226,82.32041,11.04973,186.74029-.55253,275.69056-3.31489,27.07181-7.73484,42.54142-14.36463,54.69614v.55246h90.05518c40.88405,0,63.53604-29.83424,62.98351-58.01104-.55253-45.85632-51.93378-77.34807-51.93378-155.2486,0-17.67952,7.18231-38.12154,20.44216-38.12154,12.15451,0,17.12699,3.31489,34.80651,33.1492,22.652,38.12154,42.54135,82.87287,67.40346,140.88398,26.51914,61.87839,48.06608,77.348,106.62965,77.348h73.48072v-.55246c-6.62979-12.15472-11.04973-27.62434-14.36463-54.69614-11.60226-88.95027-12.15479-194.47513-.55253-276.24308,3.31489-26.51935,7.73484-41.98889,14.36463-54.69607v-.55253ZM2161.32586,323.75692c-46.9613,0-72.37566-37.56908-73.48058-116.5746-1.10506-76.24308,25.96675-129.83424,73.48058-129.83424,46.9613,0,72.37566,37.56901,73.48072,116.57453,1.10506,75.69063-24.86183,129.83431-73.48072,129.83431ZM2160.77333,400c123.20439,0,188.95027-93.92267,186.74043-209.94475-2.20984-116.5746-66.85093-190.05525-186.74043-190.05525-122.65186,0-188.95013,95.02759-186.74029,211.04973,2.20997,116.57453,72.3758,188.95027,186.74029,188.95027ZM1766.29834,323.75692c-46.9613,0-72.3758-37.56908-73.48072-116.5746-1.10492-76.24308,25.96689-129.83424,73.48072-129.83424,46.9613,0,72.37566,37.56901,73.48058,116.57453,1.10506,75.69063-24.86183,129.83431-73.48058,129.83431ZM1765.74581,400c122.09947,0,188.95027-93.92267,186.74029-209.94475-2.20997-116.5746-66.8508-190.05525-186.74029-190.05525-122.652,0-188.95027,95.02759-186.74029,211.04973,2.20997,116.57453,72.37566,188.95027,186.74029,188.95027ZM1067.40326,7.18231h-92.81769c-37.01649,0-62.43092,29.83431-62.43092,57.45858,0,29.28178,12.70718,48.61875,12.70718,82.32041s-7.73477,67.95578-40.88398,67.95578c-33.70166,0-45.85632-34.80658-45.85632-67.95578s11.60219-55.80106,11.60219-82.87294c0-27.62427-24.8619-56.90605-62.43092-56.90605h-95.02766v.55253c1.65745,2.76236,3.86742,8.83976,4.97241,11.04973,22.0994,55.80106,32.59668,98.89494,40.33145,150.27619,10.49728,69.61323,46.96137,110.49721,86.1879,113.25964l-9.94475-21.54694c.55246,30.3867-1.10499,55.80113-3.86742,77.90053-3.31496,27.07181-7.73484,42.54142-14.36463,54.69614v.55246h170.16569v-.55246c-6.62979-12.15472-11.04973-27.62434-14.36463-54.69614-2.76236-22.0994-4.41995-47.51383-3.86742-77.90053l-11.60212,21.54694c39.22646-2.76243,75.69056-43.64641,86.18776-113.25964,7.73484-51.38125,18.23205-94.47513,40.33152-150.27619,1.10492-2.20997,3.31489-8.28737,4.97234-11.04973v-.55253ZM512.70718,193.37015c8.83976-29.83424,16.02207-64.64089,22.09947-102.20991,1.10492-7.73484,3.31489-11.60226,9.94475-11.60226h6.62979c6.62985,0,8.2873,3.31496,9.94475,11.60226,6.62985,38.12154,13.81217,72.92812,22.09947,102.20991h-70.71822ZM340.33148,393.9226h107.73481c53.0387,0,63.5359-27.07181,63.5359-50.27619,0-20.99448-11.04973-29.83424-11.04973-56.35359,0-21.54701,11.04973-35.91164,36.4641-35.91164h17.67959c26.51928,0,39.22653,12.15472,39.22653,35.91164,0,27.07181-9.39229,33.14913-9.94482,56.35359-.55246,22.0994,8.83983,50.27619,62.98344,50.27619h112.70718v-.55246c-16.5746-18.78451-33.70166-52.48617-42.54142-75.69063-25.96689-66.8508-43.09395-136.4641-58.01104-199.44747-10.49728-42.54142-21.54701-87.84535-14.91716-110.49721v-.55253h-188.39774v.55253c6.62979,22.09947-4.41995,67.40326-14.91716,110.49721-14.91716,62.98338-32.04422,132.59668-58.01104,199.44747-8.83983,23.20446-25.96689,56.90612-42.54146,75.69063v.55246ZM128.72929,316.02207c4.97237-76.79554,5.52487-153.03863,0-230.93923h24.86187c63.5359,0,88.95027,32.04422,90.05525,109.39229,1.10499,64.64089-27.07181,121.54694-90.05525,121.54694h-24.86187ZM1565.74581,393.9226h-92.81769c-39.22646,0-61.87846-32.59668-61.32593-71.27068.55253-31.49176,40.33152-89.50279,40.33152-144.7514.55239-16.02207-2.7625-35.35911-19.3371-35.35911-9.94468,0-15.46955,4.97241-22.65186,24.30937-9.39229,24.30944-16.5746,57.45858-25.41436,87.84535-9.94482,34.80658-29.28178,58.01104-62.43099,58.01104-34.25412,0-51.38125-24.30937-59.11595-58.56356-5.52487-26.51935-11.60226-54.69614-26.51942-86.18783-7.18231-15.46961-16.02207-25.41436-27.07181-25.41436-8.83976,0-17.12699,8.83976-17.12699,25.96682,0,57.45858,37.56901,121.54701,38.12154,154.14368.55239,38.674-22.09947,71.27068-61.32607,71.27068h-96.68511v-.55246c7.18245-12.15472,12.70718-27.62434,17.12713-54.69614,16.5746-88.95027,22.652-193.9226,14.91716-276.24308-1.65745-26.51935-5.52487-41.98889-11.60226-54.69607v-.55253h123.75692c41.98896,0,62.98338,53.0387,77.34814,104.41988,12.70718,46.9613,19.33697,81.76795,30.93923,81.76795,12.70718,0,16.02207-33.70166,26.51928-80.66296,11.04973-51.38125,30.3867-106.0774,80.11051-106.0774l113.8121.55253v.55253c-6.07726,12.70718-9.94468,28.17673-11.60212,54.69607-7.73484,82.32048-1.65745,187.29282,14.91702,276.24308,4.41995,27.07181,9.94482,42.54142,17.12713,54.69614v.55246Z"/>
  </g>
</svg>