<?xml version="1.0" encoding="UTF-8"?>
<svg id="b" data-name="Layer 2" xmlns="http://www.w3.org/2000/svg" viewBox="0 0 965.9746 498.04299">
  <g id="c" data-name="Layer 1">
    <g>
      <g>
        <g>
          <path d="M362.87364,497.52108c4.04993,0,7.49238-.40499,10.52983-1.01248,3.03745-.60749,6.0749-1.21498,9.11235-2.02497v-18.0222c-6.2774,2.02497-12.1498,3.03745-17.81971,3.03745-6.68239,0-11.74481-1.61997-14.78226-5.06242-3.03745-3.44244-4.65742-8.30236-4.65742-14.78226v-82.41615h35.03193v-18.0222h-35.03193v-30.98199h-21.66714v30.98199h-19.64218v18.0222h19.64218v84.23862c0,10.73232,3.03745,19.43968,9.31485,26.12207,6.2774,6.68239,16.19973,9.92234,29.96951,9.92234Z"/>
          <path d="M144.78472,495.69861h60.34401v-17.00972h-19.64218v-66.21641c0-5.8724,1.01248-11.13732,3.03745-15.79474,2.02497-4.65742,4.85992-8.50486,8.30236-11.54231,3.64494-3.23995,7.28988-5.46741,11.74481-7.08738,4.45493-1.61997,9.11235-2.42996,13.97227-2.42996,10.52983,0,18.4272,2.83495,23.69211,8.30236,5.26491,5.46741,7.89737,13.97227,7.89737,25.31209v69.45636h-19.64218v17.00972h60.34401v-17.00972h-19.03469v-67.83639c0-9.92234-1.21498-18.2247-3.64494-25.10959-2.42996-6.68239-5.66991-12.3523-9.92234-16.60473-4.25243-4.25243-9.31485-7.49238-14.98475-9.31485-5.8724-1.82247-12.1498-3.03745-19.03469-3.03745-5.26491,0-10.32733.80999-14.78226,2.22746-4.45493,1.41748-8.70736,3.44244-12.3523,5.8724-3.64494,2.42996-6.68239,5.06242-9.31485,8.09987-2.63246,3.03745-4.65742,6.0749-6.2774,9.11235v-22.88212h-41.30932v18.0222h19.64218v101.45084h-19.03469v17.00972Z"/>
          <polygon points="643.20804 224.97381 703.55205 224.97381 703.55205 207.96409 683.90987 207.96409 683.90987 88.49105 642.80304 88.49105 642.80304 106.51325 662.24272 106.51325 662.24272 207.96409 643.20804 207.96409 643.20804 224.97381"/>
          <polygon points="567.67677 224.97381 627.61579 224.97381 627.61579 207.96409 608.5811 207.96409 608.5811 32.39947 567.06928 32.39947 567.06928 50.42167 586.71146 50.42167 586.71146 207.96409 567.67677 207.96409 567.67677 224.97381"/>
          <polygon points="491.94301 224.97381 551.88203 224.97381 551.88203 207.96409 532.84734 207.96409 532.84734 32.39947 491.33552 32.39947 491.33552 50.42167 510.9777 50.42167 510.9777 207.96409 491.94301 207.96409 491.94301 224.97381"/>
          <path d="M312.93595,226.79628c4.04993,0,7.49238-.40499,10.52983-1.01248,3.03745-.60749,6.0749-1.21498,9.11235-2.02497v-18.0222c-6.2774,2.02497-12.1498,3.03745-17.81971,3.03745-6.68239,0-11.74481-1.61997-14.78226-5.06242-3.03745-3.44244-4.65742-8.30236-4.65742-14.78226v-82.41615h35.03193v-18.0222h-35.03193v-30.98199h-21.66714v30.98199h-19.64218v18.0222h19.64218v84.23862c0,10.73232,3.03745,19.43968,9.31485,26.12207,6.2774,6.68239,16.19973,9.92234,29.96951,9.92234Z"/>
          <path d="M94.84702,224.97381h60.34401v-17.00972h-19.64218v-66.21641c0-5.8724,1.01248-11.13732,3.03745-15.79474s4.85992-8.50486,8.30236-11.54231c3.64494-3.23995,7.28988-5.46741,11.74481-7.08738,4.45493-1.61997,9.11235-2.42996,13.97227-2.42996,10.52983,0,18.4272,2.83495,23.69211,8.30236,5.26491,5.46741,7.89737,13.97227,7.89737,25.31209v69.45636h-19.64218v17.00972h60.34401v-17.00972h-19.03469v-67.83639c0-9.92234-1.21498-18.2247-3.64494-25.10959-2.42996-6.68239-5.66991-12.3523-9.92234-16.60473-4.25243-4.25243-9.31485-7.49238-14.98475-9.31485-5.8724-1.82247-12.1498-3.03745-19.03469-3.03745-5.26491,0-10.32733.80999-14.78226,2.22746-4.45493,1.41748-8.70736,3.44244-12.3523,5.8724-3.64494,2.42996-6.68239,5.06242-9.31485,8.09987-2.63246,3.03745-4.65742,6.0749-6.2774,9.11235v-22.88212h-41.30932v18.0222h19.64218v101.45084h-19.03469v17.00972Z"/>
          <polygon points="6.15348 224.97381 75.81234 224.97381 75.81234 206.95161 52.32272 206.95161 52.32272 56.49657 75.81234 56.49657 75.81234 38.47437 6.15348 38.47437 6.15348 56.49657 29.64309 56.49657 29.64309 206.95161 6.15348 206.95161 6.15348 224.97381"/>
          <path d="M474.93263,154.50487c0-12.35193-1.61948-22.6795-5.06125-31.38684-3.44328-8.70734-7.8976-15.79483-13.56729-21.26208-5.8725-5.67006-12.35343-9.31502-19.84541-11.94743-7.28917-2.63241-14.98396-3.84739-22.67875-3.84739-9.51858,0-18.02311,1.82267-25.92072,5.26482-7.8961,3.44252-14.57984,8.10004-20.24953,14.17459-5.8725,6.27737-10.12401,13.56729-13.16167,22.27463-3.03765,8.50528-4.65714,18.02236-4.65714,28.34994v2.02473c0,10.53001,1.61948,19.84503,4.85995,28.34956,3.23896,8.70734,7.69479,15.79483,13.56729,21.86976,5.871,6.07456,12.95886,10.73244,20.85646,13.97216,8.10041,3.23971,17.01056,4.85995,26.73046,4.85995,15.38958,0,28.34844-3.44252,38.87807-10.52963,10.32833-6.88505,16.80775-17.41468,19.23697-31.18478h-21.6662c-2.83484,15.99726-14.78265,23.89486-36.24754,23.89486-13.97141,0-24.70385-4.25264-31.99452-12.35268-7.28917-8.09966-11.33937-20.04672-11.745-35.43667h102.6658v-7.08748ZM372.87526,143.57037c2.0251-12.14987,6.47943-21.86976,13.56729-28.75481,7.28917-7.08711,16.19932-10.73244,27.33739-10.73244,11.13656,0,20.24953,3.03765,27.13458,9.11259,7.08636,6.07493,10.93375,16.1997,11.9463,30.37466h-79.98555Z"/>
          <path d="M829.10029,88.4911v21.86938c-4.05021-6.47943-9.71989-12.35193-16.80775-17.00944s-16.40213-7.28992-27.94432-7.28992c-9.31427,0-18.02161,1.82267-25.7179,5.46725-7.69479,3.64534-14.57834,8.50491-20.04672,14.57984-5.66969,6.27737-9.9212,13.36485-13.16167,21.66695-3.24047,8.30247-4.65714,17.00981-4.65714,26.1224v1.82229c0,9.51746,1.61948,18.2248,4.65714,26.1224,3.03765,7.89723,7.28917,14.57946,12.96036,20.45196,5.46688,5.67006,11.9463,10.12476,19.64109,13.36485,7.69479,3.23971,15.99801,4.85995,24.90816,4.85995,4.85844,0,9.51708-.81012,14.37703-2.22754,4.65714-1.4178,8.90865-3.44252,13.16167-5.67006,4.25302-2.22716,7.69479-5.06238,10.93525-8.30247,3.23896-3.23971,5.66969-6.27737,7.69479-9.71989v20.04747c0,14.57984-4.05021,25.31228-11.94781,31.99452s-18.63004,10.12476-31.99452,10.12476c-23.08437,0-36.24604-7.8976-39.28369-23.89486h-22.27463c.80974,5.67006,2.63203,11.13731,5.46688,16.20007,2.83484,5.06238,6.68224,9.51708,11.745,13.36448,4.85995,3.64534,11.13656,6.68261,18.42723,8.91015,7.49198,2.22716,16.19932,3.44252,26.32483,3.44252,9.51708,0,18.22442-1.21536,26.12202-3.64534,7.8976-2.42997,14.78265-6.07456,20.45234-10.9345,5.8725-4.85995,10.32682-10.93488,13.56729-18.42723,3.23896-7.28992,5.06125-15.99726,5.06125-25.91959v-109.34842h18.42723v-18.02199h-40.09343ZM829.91003,154.30244c0,7.69517-1.21536,14.3774-3.44177,20.45196-2.22791,6.07531-5.46838,10.93525-9.51858,15.18752-3.84739,4.04983-8.70734,7.08711-14.17422,9.31502-5.46688,2.22716-11.33937,3.23971-17.61749,3.23971-5.66969,0-11.13656-1.01255-16.19932-3.23971-5.26557-2.22791-9.71989-5.26519-13.36448-9.31502-3.84739-4.25227-6.68224-9.11221-8.91015-14.98471-2.22791-5.8725-3.44328-12.3523-3.44328-19.84466v-2.22754c0-7.08748,1.01255-13.56729,3.03765-19.64222s4.65714-11.13731,8.50603-15.38958c3.84589-4.25264,8.09891-7.69479,13.56579-10.12476,5.26557-2.42997,11.34088-3.64534,18.22593-3.64534,13.36448,0,23.6913,4.25264,31.5889,12.75755,7.69479,8.30247,11.745,20.24953,11.745,35.63911v1.82267Z"/>
          <path d="M125.14174,425.22974c0-12.3523-1.61948-22.67969-5.06125-31.38703-3.44328-8.70734-7.8976-15.79445-13.56729-21.26208-5.8725-5.66969-12.35193-9.31502-19.84541-11.94706-7.28917-2.63278-14.98396-3.84777-22.67875-3.84777-9.51858,0-18.02311,1.82267-25.92072,5.26519-7.8961,3.44252-14.57834,8.09966-20.24953,14.17459-5.8725,6.27737-9.9212,13.56729-13.16167,22.27463-3.24047,8.50491-4.65714,18.02218-4.65714,28.34956v2.02492c0,10.52982,1.61948,19.84466,4.85995,28.34956,3.23896,8.70734,7.69479,15.79464,13.56729,21.86957,6.07381,6.27737,12.95886,10.73244,20.85646,13.97235,8.10041,3.2399,17.01056,4.85995,26.73046,4.85995,15.38958,0,28.34844-3.44252,38.87807-10.52982,10.32833-6.88486,16.80775-17.41468,19.23848-31.18459h-21.6677c-2.63203,15.99726-14.78265,23.89467-36.24754,23.89467-13.97141,0-24.70385-4.25245-31.99452-12.3523-7.28917-8.09985-11.33937-20.04728-11.74349-35.43686h102.6643v-7.08748ZM23.28718,414.29486c1.82229-12.14968,6.27662-21.86957,13.36448-28.75462,7.28917-7.08711,16.19932-10.73207,27.33739-10.73207,11.13656,0,20.24953,3.03728,27.13458,9.11221,7.08636,6.07493,10.93375,16.19988,11.9463,30.37448H23.28718Z"/>
        </g>
        <g>
          <polygon points="709.56136 48.80165 709.56136 48.73706 709.55911 48.80165 709.56136 48.80165"/>
          <path d="M662.78494,77.75927h18.06668v-29.02222h28.70974v-17.35008c-23.28718-2.02435-50.21895,9.9227-46.77642,46.3723Z"/>
          <path d="M681.81924,0h-18.06668v29.02222h-28.70974v17.35008c23.28718,2.02435,50.21895-9.9227,46.77642-46.3723Z"/>
        </g>
      </g>
      <g>
        <path d="M455.64354,495.69827v-17.97559h25.53003v-25.79004h-93.52271v-9.89941l85.44678-132.59863h30.21924v124.52344h25.79028v17.97461h-25.79028v25.79004h23.4458v17.97559h-71.11914ZM481.17357,433.95803v-107.06934l-68.51392,107.06934h68.51392Z"/>
        <path d="M624.45091,498.04299c-11.11621,0-21.23145-2.17383-30.34912-6.5127-9.11792-4.33887-16.89258-10.4209-23.31567-18.23535-6.42725-7.81543-11.42163-17.2793-14.97925-28.39551-3.56177-11.11328-5.34058-23.44629-5.34058-36.99316v-10.41992c0-13.71777,1.69336-26.13672,5.08008-37.25293,3.38647-11.1123,8.24658-20.62109,14.58838-28.52539,6.33789-7.90137,14.02271-13.97852,23.05518-18.23633,9.02832-4.25293,19.27759-6.38184,30.73999-6.38184s21.70776,2.17383,30.74023,6.5127c9.02808,4.34277,16.62769,10.50977,22.79443,18.49609,6.1626,7.99023,10.89673,17.49902,14.19775,28.52539,3.29712,11.03125,4.94971,23.14453,4.94971,36.34082v10.4209c0,13.5459-1.60791,25.87988-4.81934,36.99219-3.21582,11.11621-7.90479,20.66992-14.06763,28.65625-6.16675,7.99023-13.72144,14.15723-22.66431,18.49609-8.94678,4.33887-19.14746,6.5127-30.60986,6.5127ZM624.45091,479.28616c16.32251,0,28.61133-6.08496,36.86206-18.26367,8.24683-12.17969,12.37427-30.18262,12.37427-54.01953v-10.43652c0-10.78711-1.13159-20.57227-3.38672-29.35645-2.25903-8.78418-5.51538-16.31055-9.76904-22.57422-4.25757-6.26074-9.46777-11.08789-15.63062-14.4834-6.16675-3.39062-13.15552-5.08789-20.97095-5.08789-15.80542,0-28.13501,6.21973-36.99219,18.65918-8.85742,12.43945-13.28613,30.22754-13.28613,53.36328v10.4375c0,23.66113,4.59961,41.53906,13.80713,53.62793,9.20337,12.08887,21.53271,18.13379,36.99219,18.13379Z"/>
        <path d="M717.44945,495.69827v-17.97559h37.51318v-145.88477l-41.6814,29.95898v-21.10156l43.24438-31.26074h21.10132v168.28809h36.47144v17.97559h-96.64893Z"/>
        <path d="M890.16649,495.69827h-59.65674v-16.93262h19.01709v-166.46582h-19.53809v-17.97559h41.1604v129.99414l48.71533-48.97559h-20.31982v-15.89062h62.26172v16.93262h-19.79858l-47.93384,46.63184,51.84131,55.74902h20.05933v16.93262h-30.21899l-64.60645-68.77441v51.8418h19.01733v16.93262Z"/>
      </g>
    </g>
  </g>
</svg>