<?xml version="1.0" encoding="UTF-8"?>
<svg id="b" xmlns="http://www.w3.org/2000/svg" version="1.1" viewBox="0 0 966 498">
  <!-- Generator: Adobe Illustrator 30.0.0, SVG Export Plug-In . SVG Version: 2.1.1 Build 123)  -->
  <g id="c">
    <g>
      <g>
        <g>
          <path d="M362.9,497.5c4,0,7.5-.4,10.5-1s6.1-1.2,9.1-2v-18c-6.3,2-12.1,3-17.8,3s-11.7-1.6-14.8-5.1-4.7-8.3-4.7-14.8v-82.4h35v-18h-35v-31h-21.7v31h-19.6v18h19.6v84.2c0,10.7,3,19.4,9.3,26.1s16.2,9.9,30,9.9h0Z"/>
          <path d="M144.8,495.7h60.3v-17h-19.6v-66.2c0-5.9,1-11.1,3-15.8s4.9-8.5,8.3-11.5c3.6-3.2,7.3-5.5,11.7-7.1s9.1-2.4,14-2.4c10.5,0,18.4,2.8,23.7,8.3s7.9,14,7.9,25.3v69.5h-19.6v17h60.3v-17h-19v-67.8c0-9.9-1.2-18.2-3.6-25.1-2.4-6.7-5.7-12.4-9.9-16.6-4.3-4.3-9.3-7.5-15-9.3-5.9-1.8-12.1-3-19-3s-10.3.8-14.8,2.2c-4.5,1.4-8.7,3.4-12.4,5.9-3.6,2.4-6.7,5.1-9.3,8.1-2.6,3-4.7,6.1-6.3,9.1v-22.9h-41.3v18h19.6v101.5h-19v17h0Z"/>
          <polygon points="643.2 225 703.6 225 703.6 208 683.9 208 683.9 88.5 642.8 88.5 642.8 106.5 662.2 106.5 662.2 208 643.2 208 643.2 225"/>
          <polygon points="567.7 225 627.6 225 627.6 208 608.6 208 608.6 32.4 567.1 32.4 567.1 50.4 586.7 50.4 586.7 208 567.7 208 567.7 225"/>
          <polygon points="491.9 225 551.9 225 551.9 208 532.8 208 532.8 32.4 491.3 32.4 491.3 50.4 511 50.4 511 208 491.9 208 491.9 225"/>
          <path d="M312.9,226.8c4,0,7.5-.4,10.5-1,3-.6,6.1-1.2,9.1-2v-18c-6.3,2-12.1,3-17.8,3s-11.7-1.6-14.8-5.1c-3-3.4-4.7-8.3-4.7-14.8v-82.4h35v-18h-35v-31h-21.7v31h-19.6v18h19.6v84.2c0,10.7,3,19.4,9.3,26.1s16.2,9.9,30,9.9h0Z"/>
          <path d="M94.8,225h60.3v-17h-19.6v-66.2c0-5.9,1-11.1,3-15.8s4.9-8.5,8.3-11.5c3.6-3.2,7.3-5.5,11.7-7.1s9.1-2.4,14-2.4c10.5,0,18.4,2.8,23.7,8.3s7.9,14,7.9,25.3v69.5h-19.6v17h60.3v-17h-19v-67.8c0-9.9-1.2-18.2-3.6-25.1-2.4-6.7-5.7-12.4-9.9-16.6-4.3-4.3-9.3-7.5-15-9.3-5.9-1.8-12.1-3-19-3s-10.3.8-14.8,2.2c-4.5,1.4-8.7,3.4-12.4,5.9-3.6,2.4-6.7,5.1-9.3,8.1s-4.7,6.1-6.3,9.1v-22.9h-41.3v18h19.6v101.5h-19v17h0Z"/>
          <polygon points="6.2 225 75.8 225 75.8 207 52.3 207 52.3 56.5 75.8 56.5 75.8 38.5 6.2 38.5 6.2 56.5 29.6 56.5 29.6 207 6.2 207 6.2 225"/>
          <path d="M474.9,154.5c0-12.4-1.6-22.7-5.1-31.4-3.4-8.7-7.9-15.8-13.6-21.3-5.9-5.7-12.4-9.3-19.8-11.9-7.3-2.6-15-3.8-22.7-3.8s-18,1.8-25.9,5.3c-7.9,3.4-14.6,8.1-20.2,14.2-5.9,6.3-10.1,13.6-13.2,22.3-3,8.5-4.7,18-4.7,28.3v2c0,10.5,1.6,19.8,4.9,28.3,3.2,8.7,7.7,15.8,13.6,21.9,5.9,6.1,13,10.7,20.9,14,8.1,3.2,17,4.9,26.7,4.9,15.4,0,28.3-3.4,38.9-10.5,10.3-6.9,16.8-17.4,19.2-31.2h-21.7c-2.8,16-14.8,23.9-36.2,23.9s-24.7-4.3-32-12.4c-7.3-8.1-11.3-20-11.7-35.4h102.7v-7.1h0ZM372.9,143.6c2-12.1,6.5-21.9,13.6-28.8,7.3-7.1,16.2-10.7,27.3-10.7s20.2,3,27.1,9.1c7.1,6.1,10.9,16.2,11.9,30.4h-80Z"/>
          <path d="M829.1,88.5v21.9c-4.1-6.5-9.7-12.4-16.8-17s-16.4-7.3-27.9-7.3-18,1.8-25.7,5.5c-7.7,3.6-14.6,8.5-20,14.6-5.7,6.3-9.9,13.4-13.2,21.7-3.2,8.3-4.7,17-4.7,26.1v1.8c0,9.5,1.6,18.2,4.7,26.1,3,7.9,7.3,14.6,13,20.5,5.5,5.7,11.9,10.1,19.6,13.4,7.7,3.2,16,4.9,24.9,4.9s9.5-.8,14.4-2.2c4.7-1.4,8.9-3.4,13.2-5.7,4.3-2.2,7.7-5.1,10.9-8.3,3.2-3.2,5.7-6.3,7.7-9.7v20c0,14.6-4.1,25.3-11.9,32s-18.6,10.1-32,10.1c-23.1,0-36.2-7.9-39.3-23.9h-22.3c.8,5.7,2.6,11.1,5.5,16.2,2.8,5.1,6.7,9.5,11.7,13.4,4.9,3.6,11.1,6.7,18.4,8.9,7.5,2.2,16.2,3.4,26.3,3.4s18.2-1.2,26.1-3.6c7.9-2.4,14.8-6.1,20.5-10.9,5.9-4.9,10.3-10.9,13.6-18.4,3.2-7.3,5.1-16,5.1-25.9v-109.3h18.4v-18h-40.1,0ZM829.9,154.3c0,7.7-1.2,14.4-3.4,20.5-2.2,6.1-5.5,10.9-9.5,15.2-3.8,4-8.7,7.1-14.2,9.3-5.5,2.2-11.3,3.2-17.6,3.2s-11.1-1-16.2-3.2c-5.3-2.2-9.7-5.3-13.4-9.3-3.8-4.3-6.7-9.1-8.9-15s-3.4-12.4-3.4-19.8v-2.2c0-7.1,1-13.6,3-19.6s4.7-11.1,8.5-15.4c3.8-4.3,8.1-7.7,13.6-10.1,5.3-2.4,11.3-3.6,18.2-3.6,13.4,0,23.7,4.3,31.6,12.8,7.7,8.3,11.7,20.2,11.7,35.6v1.8h0Z"/>
          <path d="M125.1,425.2c0-12.4-1.6-22.7-5.1-31.4-3.4-8.7-7.9-15.8-13.6-21.3-5.9-5.7-12.4-9.3-19.8-11.9-7.3-2.6-15-3.8-22.7-3.8s-18,1.8-25.9,5.3c-7.9,3.4-14.6,8.1-20.2,14.2-5.9,6.3-9.9,13.6-13.2,22.3C1.4,407,0,416.5,0,426.8v2C0,439.4,1.6,448.7,4.9,457.2c3.2,8.7,7.7,15.8,13.6,21.9,6.1,6.3,13,10.7,20.9,14,8.1,3.2,17,4.9,26.7,4.9,15.4,0,28.3-3.4,38.9-10.5,10.3-6.9,16.8-17.4,19.2-31.2h-21.7c-2.6,16-14.8,23.9-36.2,23.9s-24.7-4.3-32-12.4c-7.3-8.1-11.3-20-11.7-35.4h102.7v-7.1ZM23.3,414.3c1.8-12.1,6.3-21.9,13.4-28.8,7.3-7.1,16.2-10.7,27.3-10.7s20.2,3,27.1,9.1c7.1,6.1,10.9,16.2,11.9,30.4H23.3Z"/>
        </g>
        <g>
          <polygon points="709.6 48.8 709.6 48.7 709.6 48.8 709.6 48.8"/>
          <path d="M662.8,77.8h18.1v-29h28.7v-17.4c-23.3-2-50.2,9.9-46.8,46.4h0Z"/>
          <path d="M681.8,0h-18.1v29h-28.7v17.4c23.3,2,50.2-9.9,46.8-46.4h0Z"/>
        </g>
      </g>
      <g>
        <path d="M455.6,495.7v-18h25.5v-25.8h-93.5v-9.9l85.4-132.6h30.2v124.5h25.8v18h-25.8v25.8h23.4v18h-71.1ZM481.2,434v-107.1l-68.5,107.1h68.5Z"/>
        <path d="M624.5,498c-11.1,0-21.2-2.2-30.3-6.5-9.1-4.3-16.9-10.4-23.3-18.2-6.4-7.8-11.4-17.3-15-28.4-3.6-11.1-5.3-23.4-5.3-37v-10.4c0-13.7,1.7-26.1,5.1-37.3,3.4-11.1,8.2-20.6,14.6-28.5,6.3-7.9,14-14,23.1-18.2,9-4.3,19.3-6.4,30.7-6.4s21.7,2.2,30.7,6.5c9,4.3,16.6,10.5,22.8,18.5,6.2,8,10.9,17.5,14.2,28.5,3.3,11,4.9,23.1,4.9,36.3v10.4c0,13.5-1.6,25.9-4.8,37-3.2,11.1-7.9,20.7-14.1,28.7-6.2,8-13.7,14.2-22.7,18.5-8.9,4.3-19.1,6.5-30.6,6.5ZM624.5,479.3c16.3,0,28.6-6.1,36.9-18.3,8.2-12.2,12.4-30.2,12.4-54v-10.4c0-10.8-1.1-20.6-3.4-29.4-2.3-8.8-5.5-16.3-9.8-22.6-4.3-6.3-9.5-11.1-15.6-14.5-6.2-3.4-13.2-5.1-21-5.1-15.8,0-28.1,6.2-37,18.7-8.9,12.4-13.3,30.2-13.3,53.4v10.4c0,23.7,4.6,41.5,13.8,53.6,9.2,12.1,21.5,18.1,37,18.1Z"/>
        <path d="M717.4,495.7v-18h37.5v-145.9l-41.7,30v-21.1l43.2-31.3h21.1v168.3h36.5v18h-96.6Z"/>
        <path d="M890.2,495.7h-59.7v-16.9h19v-151.4h-19.5v-18h41.2v114.9l48.7-49h-20.3v-15.9h62.3v16.9h-19.8l-47.9,46.6,51.8,55.7h20.1v16.9h-30.2l-64.6-68.8v51.8h19v16.9Z"/>
      </g>
    </g>
  </g>
</svg>