<?xml version="1.0" encoding="UTF-8"?>
<svg fill="currentColor" id="b" data-name="Layer 2" xmlns="http://www.w3.org/2000/svg" viewBox="0 0 2414.15929 400">
  <g id="c" data-name="Layer 1">
    <path d="M2287.61062,351.99115h126.54867v-2.43363l-34.0708-34.0708V47.78761l34.0708-34.0708v-2.43363h-126.54867v2.43363l34.0708,34.0708v267.69912l-34.0708,34.0708v2.43363ZM2068.14159,326.54867c-71.0177,0-113.93805-58.84956-113.93805-148.45133,0-85.17699,42.92035-142.47788,113.93805-142.47788s113.93805,58.84956,113.93805,148.45133c0,85.17699-42.92035,142.47788-113.93805,142.47788ZM1740.48673,400c58.40708,0,86.72566-36.50442,86.72566-100.66372V47.78761l34.0708-34.0708v-2.43363h-126.54867v2.43363l34.0708,34.0708v251.54867c0,47.78761-17.92035,72.12389-59.95575,72.12389-7.74336,0-17.0354-1.54867-25.22124-4.42478l-1.54867,1.99115c11.28319,17.92035,35.17699,30.97345,58.40708,30.97345ZM1499.55752,271.0177c-41.81416,0-66.59292-33.40708-66.59292-84.51327,0-53.09735,24.77876-85.17699,66.59292-85.17699,42.0354,0,66.81416,33.40708,66.81416,85.17699,0,52.43363-24.77876,84.51327-66.81416,84.51327ZM1499.55752,301.32743c63.93805,0,114.38053-49.11504,114.38053-114.38053s-50.44248-115.9292-114.38053-115.9292c-63.71681,0-114.38053,49.11504-114.38053,114.82301,0,64.82301,50.66372,115.48673,114.38053,115.48673ZM1226.99115,294.02655h86.72566v-2.43363l-21.0177-20.57522V106.63717h35.61947l32.07965,41.37168h1.99115v-69.24779h-184.0708v69.24779h1.99115l32.07965-41.37168h35.61947v164.38053l-21.0177,20.57522v2.43363ZM939.82301,361.06195c72.56637,0,121.23894-40.26549,121.23894-103.9823,0-73.67257-55.53097-94.02655-106.19469-116.37168-37.38938-16.15044-66.15044-29.20354-66.15044-62.83186,0-25.22124,21.0177-44.69027,57.07965-44.69027,19.9115,0,41.37168,4.86726,59.29204,23.23009l33.18584,55.97345,2.43363.44248,11.06195-80.75221c-27.21239-21.68142-59.0708-30.53097-95.35398-30.53097-51.54867-.22124-118.80531,31.41593-118.80531,99.11504,0,61.50442,40.9292,78.9823,85.17699,98.89381,46.23894,21.0177,87.61062,38.0531,87.61062,78.31858,0,32.74336-26.32743,50.22124-65.26549,50.22124-24.33628,0-46.68142-6.41593-67.0354-20.79646l-47.78761-68.80531h-1.99115v92.92035c28.31858,19.02655,76.99115,29.64602,111.50442,29.64602ZM657.52212,351.99115h126.54867v-2.43363l-34.0708-34.0708V47.78761l34.0708-34.0708v-2.43363h-126.54867v2.43363l34.0708,34.0708v267.69912l-34.0708,34.0708v2.43363ZM350.44248,351.99115h249.11504v-89.60177h-2.43363l-54.86726,54.86726h-99.33628v-125h72.56637l30.0885,33.18584h1.99115v-104.20354h-1.99115l-30.0885,32.9646h-72.56637V45.79646h96.23894l55.0885,54.86726h2.43363V11.28319h-246.23894v2.43363l34.0708,34.0708v267.69912l-34.0708,34.0708v2.43363ZM191.81416,351.99115h132.30088v-2.43363l-169.24779-192.47788L305.53097,13.71681v-2.43363h-121.68142v2.43363l33.18584,32.9646-124.55752,121.23894,129.42478,151.32743-30.0885,30.30973v2.43363ZM0,351.99115h126.54867v-2.43363l-34.0708-34.0708V47.78761L126.54867,13.71681v-2.43363H0v2.43363l34.0708,34.0708v267.69912L0,349.55752v2.43363ZM2068.14159,362.16814c100.66372,0,178.09735-72.56637,178.09735-177.65487,0-109.95575-77.43363-184.51327-178.09735-184.51327s-178.09735,72.56637-178.09735,177.65487c0,109.95575,77.43363,184.51327,178.09735,184.51327Z"/>
  </g>
</svg>