<?xml version="1.0" encoding="UTF-8"?>
<svg fill="currentColor" id="b" data-name="Layer 2" xmlns="http://www.w3.org/2000/svg" viewBox="0 0 1258.25213 400">
  <defs>
    <style>
      .d {
        fill: currentColor;
      }
    </style>
  </defs>
  <g id="c" data-name="Layer 1">
    <path class="d" d="M91.85341,400c100.11794,0,159.30097-79.40389,249.06188-205.16781C410.94853,96.19382,429.68982,59.69763,484.92731,9.88525c-10.35703-9.37065-57.70345,34.03024-95.18603,57.70345-37.48258,24.1664-95.67922,50.79876-149.43713,49.81238-39.94854-.49319-72.99239-11.8366-72.99239-52.77153,0-59.67621,86.30857-80.88346,160.78054-29.09832,1.47958-2.46596.98638-4.43873-1.47958-6.41149C255.5931-22.17222,146.10451-2.93774,146.10451,65.12274c0,45.86684,45.86684,63.62175,89.76092,63.62175,61.15579,0,145.49159-38.46896,193.8244-80.88346l11.8366-12.3298c-64.11494,58.68983-109.48859,110.47497-173.11034,192.34482-71.51282,92.22688-118.85924,163.2465-176.56268,163.2465-78.4175,0-94.69283-87.78815-48.82599-150.91671,58.19664-79.89708,110.47497-70.03324,128.72307-57.70345,18.74129,12.82299,30.0847,54.74429-8.38426,98.14518,3.94553,2.95915,7.89107.49319,12.3298-3.45234,32.55066-34.52343,30.57789-83.34942.49319-104.06348-28.60513-19.72767-103.0771-16.27533-152.39628,55.73068-49.31918,72.00601-19.72767,171.13757,68.06047,171.13757ZM579.62015,80.90488c39.94854-44.38727,50.30557-45.86684,83.34942-45.86684,18.74129,0,25.64598-7.39788,25.64598-14.79576s-10.35703-13.31618-26.13917-10.85022c-39.94854,6.41149-68.55367,40.44173-95.18603,70.03324-74.47197,82.85623-136.61414,119.35243-172.12395,123.29796l8.38426.49319c15.78214,5.9183,7.89107,34.03024-3.45234,53.26472-17.26171,29.09832-61.15579,67.56728-60.6626,105.04986,0,20.71406,17.26171,37.48258,38.46896,37.48258,24.65959,0,54.74429-15.78214,114.42051-85.81538l19.23448-39.45535c-59.67621,82.36304-107.51582,115.90008-130.69584,115.90008-10.35703,0-14.79576-5.42511-14.79576-12.3298,0-28.11194,69.54005-96.17241,69.54005-138.09372,0-30.57789-25.64598-51.78514-58.19664-50.79876-16.27533.49319-26.63236,4.43873-26.63236,12.3298s10.35703,13.31618,28.11194,13.31618c49.81238,0,116.88647-38.96216,200.72908-133.1618ZM1168.9844,399.01362c21.70044,0,57.70345-15.78214,64.60813-63.12856.98638-2.95915-.49319-4.93192-2.95915-5.42511-11.8366,47.34642-39.94854,57.21025-57.70345,57.21025-27.12555,0-36.003-27.61874,5.42511-84.829l79.89708-109.48859h-42.4145l-77.92431,114.9137c-31.56428,46.36003-16.76852,90.7473,31.07109,90.7473ZM1033.35664,390.13616c-36.98939,0-3.94553-51.78514,28.60513-93.70645,36.4962-46.85323,76.44474-98.14518,110.96817-98.14518,30.0847,0-3.45234,63.12856-32.55066,101.10433-41.42812,54.74429-82.36304,90.7473-107.02263,90.7473ZM1030.39749,399.01362c35.01662.49319,84.33581-51.29195,117.37966-96.17241,35.50981-49.81238,72.99239-114.42051,15.78214-114.42051-40.93492,0-84.33581,34.03024-125.27073,78.4175-50.30557,54.74429-57.70345,131.68222-7.89107,132.17541ZM905.12676,399.01362c21.20725,0,54.74429-17.26171,120.33881-104.55667l12.3298-27.61874c-76.93793,99.62475-110.96817,124.28435-130.20265,124.28435-6.90469,0-12.82299-3.94553-12.82299-11.8366,0-48.82599,109.98178-113.43412,109.98178-157.82139,0-23.18002-11.8366-33.04385-35.01662-33.04385-34.52343,0-81.86985,41.42812-127.2435,92.72007l13.80937-11.34341,55.73068-76.44474h-41.42812l-144.9984,200.72908h41.42812l46.85323-65.59452c62.63536-87.29496,124.28435-131.68222,151.90309-131.68222,8.87745,0,13.31618,3.45234,13.31618,12.82299,0,33.04385-109.48859,97.65199-109.48859,149.93032,0,20.71406,10.85022,39.45535,35.50981,39.45535ZM635.84402,140.0879c12.82299,0,21.70044-9.37065,22.68682-21.70044s-7.39788-21.70044-19.72767-21.70044c-13.31618,0-22.19363,9.37065-23.18002,21.70044-.49319,12.3298,7.89107,21.70044,20.22087,21.70044ZM623.02103,389.64297c-30.0847,0-2.95915-50.79876,26.63236-93.21326,39.94854-57.21025,70.52643-99.13156,99.62475-99.13156,10.85022,0,14.79576,3.94553,14.79576,15.78214,0,24.1664-22.19363,64.60813-41.42812,92.22688l22.68682-30.57789c-.49319-6.41149-7.89107-9.37065-14.79576-9.37065-11.8366,0-23.18002,12.82299-23.18002,26.13917,0,19.72767,12.3298,28.11194,26.63236,28.11194,38.96216,0,76.44474-38.96216,98.63837-69.54005l37.97577-56.71706c-56.71706,73.97878-98.14518,119.35243-134.14818,119.35243-5.9183,0-11.8366-.49319-16.27533-2.95915-36.003,51.29195-75.45835,79.89708-97.15879,79.89708ZM617.59592,399.01362c39.94854.49319,87.78815-51.29195,116.88647-96.17241,41.42812-63.62175,52.77153-114.42051,11.8366-114.42051-43.40088,0-86.30857,34.03024-123.79115,78.4175-46.36003,54.74429-46.85323,131.68222-4.93192,132.17541ZM490.84561,399.01362c18.2481,0,53.26472-13.31618,122.31158-105.04986l9.37065-27.12555c-74.47197,100.11794-113.43412,122.80477-127.2435,122.80477-19.23448,0-.49319-35.50981,22.68682-67.56728l93.21326-128.72307h-41.42812l-83.84261,115.90008c-31.56428,43.89407-28.60513,89.76092,4.93192,89.76092Z"/>
  </g>
</svg>