<?xml version="1.0" encoding="UTF-8"?>
<svg id="b" xmlns="http://www.w3.org/2000/svg" version="1.1" viewBox="0 0 1258.300049 400">
  <!-- Generator: Adobe Illustrator 30.0.0, SVG Export Plug-In . SVG Version: 2.1.1 Build 123)  -->
  <path d="M484.859847,9.777658c-10.357235-9.370831-57.704593,34.030914-95.187918,57.704593-37.483325,24.166881-95.68112,50.79977-149.440099,49.813366-39.949333-.493202-72.993844-11.83684-72.993844-52.772576,0-59.677399,86.310288-80.88507,160.783737-29.098897,1.479605-2.466008.986403-4.438815-1.479605-6.411621C255.521081-22.280449,146.030316-3.045585,146.030316,65.016242c0,45.867753,45.867753,63.623012,89.7627,63.623012,56.624962,0,133.117665-32.980271,182.509384-71.535431-52.545964,50.377731-94.259191,98.994457-149.958075,170.668962-71.514239,92.228708-118.861597,163.249745-176.56619,163.249745-78.419062,0-94.694716-87.789893-48.826963-150.919704,58.197794-79.898667,110.477169-70.034634,128.72563-57.704593,18.741663,12.823243,30.0853,54.745383-8.384428,98.147128,3.945613,2.95921,7.891226.493202,12.330041-3.452412,32.551309-34.524115,30.578502-83.351078.493202-104.065548-28.605696-19.728066-103.079144-16.275654-152.399309,55.731786S3.988241,399.900161,91.778134,399.900161c100.119934,0,159.304132-79.405465,249.066832-205.171885C410.8796,96.087946,429.621263,59.591024,484.859847,9.777658Z"/>
  <path d="M1230.580708,330.358728c-11.83684,47.347358-39.949333,57.211391-57.704593,57.211391-27.126091,0-36.00372-27.619292,5.425218-84.830683l79.898667-109.490766h-42.415342l-28.089977,41.423911c10.160123-26.339539,7.654078-46.355928-24.189397-46.355928-40.935737,0-84.337482,34.030914-125.273218,78.419062-.330166.359365-.650939.723547-.977493,1.084809l.484291-1.084809c-1.145706,1.483639-2.280636,2.948162-3.407498,4.398718-3.556627,4.136464-6.8746,8.379491-9.950548,12.690701-67.598548,85.393964-98.76375,107.197396-116.847189,107.197396-6.904823,0-12.823243-3.945613-12.823243-11.83684,0-48.826963,109.983967-113.436379,109.983967-157.824527,0-23.180477-11.83684-33.04451-35.017317-33.04451-28.021584,0-64.490932,27.29322-101.496468,65.000569l43.791875-60.068553h-41.428938c-56.718189,73.980247-98.147128,119.354799-134.150848,119.354799-2.805987,0-5.610048-.11424-8.258358-.493653,2.177625-3.143197,4.277705-6.27348,6.285552-9.37038,41.428938-63.623012,52.772576-114.422782,11.83684-114.422782-43.401745,0-86.310258,34.030914-123.793583,78.419062-3.839682,4.53409-7.357747,9.222546-10.570151,14.005103-67.617091,88.256845-103.535019,108.802108-116.675874,108.802108-19.234864,0-.493202-35.510519,22.687276-67.568626l93.215111-128.72563h-41.428938l-58.28455,80.569805.086756-.177937c-59.677399,82.364675-107.517959,115.902387-130.698437,115.902387-10.357235,0-14.796049-5.425218-14.796049-12.330041,0-28.112494,69.541432-96.174321,69.541432-138.096461,0-13.419757-4.940536-25.033807-13.235438-33.75999,43.263453-16.07782,95.744726-55.45436,157.250319-124.557739,39.949333-44.388148,50.306568-45.867753,83.351078-45.867753,18.741663,0,25.646486-7.398025,25.646486-14.796049s-10.357235-13.316444-26.139687-10.850436c-39.949333,6.411621-68.555029,40.442535-95.187918,70.034634-62.700306,69.759255-116.658957,106.654314-153.344231,118.931556-9.934202-6.707591-22.602176-10.356271-36.538403-9.933991-16.275654.493202-26.632889,4.438815-26.632889,12.330041s10.357235,13.316444,28.112494,13.316444c9.841908,0,20.360583-1.52804,31.546392-4.6955,5.521246,10.896644-1.316027,31.811506-10.338721,47.110842-17.262058,29.098897-61.157004,67.568626-60.663803,105.051951,0,20.714469,17.262058,37.483325,38.469728,37.483325,21.350899,0,46.773361-11.839609,91.943064-60.46949-12.625258,32.868801-5.01513,60.46949,21.000113,60.46949,16.380321,0,46.272453-10.730748,102.16005-79.275271-13.265661,41.309672-4.68093,78.930867,24.592773,79.275271,35.481861.438054,77.187202-40.364419,106.459159-80.941031,3.096719,1.034899,6.457137,1.535566,9.9364,1.535566,27.53079,0,54.321417-19.45359,75.503019-41.656424l-83.887447,116.129873h41.428938l46.854156-65.595819c62.636609-87.296692,124.286815-131.68484,151.906107-131.68484,8.87763,0,13.316444,3.452412,13.316444,12.823243,0,33.04451-109.490766,97.653926-109.490766,149.933301,0,20.714469,10.850436,39.456132,35.510519,39.456132,18.763336,0,47.183359-13.523189,98.912457-77.095148-15.056377,40.44404-7.810491,76.756824,26.360761,77.095148,28.046208.395007,65.265894-32.746705,95.951562-69.016472-14.472025,37.586999,2.382564,69.016472,42.638101,69.016472,21.700872,0,57.704593-15.782453,64.609416-63.129811.986403-2.95921-.493202-4.932016-2.95921-5.425218ZM622.956308,389.542926c-30.0853,0-2.95921-50.79977,26.632889-93.215111,39.949333-57.211391,70.527805-99.133531,99.626703-99.133531,10.850436,0,14.796049,3.945613,14.796049,15.782453,0,15.214807-8.797797,36.880369-20.114885,57.73599-2.535305-3.710512-8.122475-5.456615-13.422827-5.456615-11.83684,0-23.180477,12.823243-23.180477,26.139687,0,10.909347,3.77463,18.343856,9.56409,22.815995-35.1032,48.419975-72.853686,75.331133-93.901542,75.331133ZM1033.300049,390.036128c-36.990124,0-3.945613-51.786173,28.605696-93.708313,36.496922-46.854156,76.446255-98.147128,110.970371-98.147128,30.0853,0-3.452412,63.129811-32.551309,101.106338-41.428938,54.745383-82.364675,90.749103-107.024757,90.749103Z"/>
  <path d="M615.558284,118.28202c-.493202,12.330041,7.891226,21.700872,20.221268,21.700872,12.823243,0,21.700872-9.370831,22.687276-21.700872s-7.398025-21.700872-19.728066-21.700872c-13.316444,0-22.194074,9.370831-23.180477,21.700872Z"/>
</svg>