<?xml version="1.0" encoding="UTF-8"?>
<svg id="b" xmlns="http://www.w3.org/2000/svg" version="1.1" viewBox="0 0 1258.3 400">
  <!-- Generator: Adobe Illustrator 30.0.0, SVG Export Plug-In . SVG Version: 2.1.1 Build 123)  -->
  <polygon points="635.8 140.1 635.8 140.1 635.8 140.1 635.8 140.1"/>
  <path d="M484.9,9.9c-10.4-9.4-57.7,34-95.2,57.7-37.5,24.2-95.7,50.8-149.4,49.8-39.9-.5-73-11.8-73-52.8,0-59.7,86.3-80.9,160.8-29.1,1.5-2.5,1-4.4-1.5-6.4C255.6-22.2,146.1-2.9,146.1,65.1s45.9,63.6,89.8,63.6,133.2-33,182.6-71.6c-52.6,50.4-94.3,99-150.1,170.8-71.5,92.2-118.9,163.2-176.6,163.2S-2.8,303.3,43,240.2c58.2-79.9,110.5-70,128.7-57.7,18.7,12.8,30.1,54.7-8.4,98.1,3.9,3,7.9.5,12.3-3.5,32.6-34.5,30.6-83.3.5-104.1-28.6-19.7-103.1-16.3-152.4,55.7-49.3,72-19.7,171.1,68.1,171.1s159.3-79.4,249.1-205.2C410.9,96.2,429.7,59.7,484.9,9.9Z"/>
  <path d="M1230.6,330.5c-11.8,47.3-39.9,57.2-57.7,57.2-27.1,0-36-27.6,5.4-84.8l79.9-109.5h-42.4l-28.1,41.4c10.2-26.3,7.7-46.4-24.2-46.4s-84.3,34-125.3,78.4c-.3.4-.7.7-1,1.1l.5-1.1c-1.1,1.5-2.3,2.9-3.4,4.4-3.6,4.1-6.9,8.4-10,12.7-67.6,85.4-98.8,107.2-116.8,107.2s-12.8-3.9-12.8-11.8c0-48.8,110-113.4,110-157.8s-11.8-33-35-33-64.5,27.3-101.5,65l43.8-60.1h-41.4c-56.7,74-98.1,119.4-134.1,119.4s-5.6-.1-8.3-.5c2.2-3.1,4.3-6.3,6.3-9.4,41.4-63.6,52.8-114.4,11.8-114.4s-86.3,34-123.8,78.4h0s0,0,0,0h0c-3.8,4.5-7.4,9.2-10.6,14-67.6,88.3-103.5,108.8-116.7,108.8-19.2,0-.5-35.5,22.7-67.6l93.2-128.7h-41.4l-58.3,80.6v-.2c-59.6,82.4-107.4,115.9-130.6,115.9s-14.8-5.4-14.8-12.3c0-28.1,69.5-96.2,69.5-138.1s-4.9-25-13.2-33.8c43.3-16.1,95.7-55.5,157.2-124.6,39.9-44.4,50.3-45.9,83.3-45.9s25.6-7.4,25.6-14.8-10.4-13.3-26.1-10.9c-39.9,6.4-68.6,40.4-95.2,70-62.7,69.8-116.7,106.7-153.4,118.9-9.9-6.7-22.6-10.4-36.5-9.9-16.3.5-26.6,4.4-26.6,12.3s10.4,13.3,28.1,13.3,20.4-1.5,31.5-4.7c5.5,10.9-1.3,31.8-10.3,47.1-17.3,29.1-61.2,67.6-60.7,105,0,20.7,17.3,37.5,38.5,37.5s46.8-11.8,91.9-60.5c-12.6,32.9-5,60.5,21,60.5h0c16.4,0,46.3-10.7,102.2-79.3-13.3,41.3-4.7,78.9,24.6,79.3,35.5.4,77.2-40.4,106.5-80.9,3.1,1,6.5,1.5,9.9,1.5,27.5,0,54.3-19.5,75.5-41.7l-83.9,116.1h41.4l46.9-65.6c62.6-87.3,124.3-131.7,151.9-131.7s13.3,3.5,13.3,12.8c0,33-109.5,97.7-109.5,149.9s10.9,39.5,35.5,39.5,47.2-13.5,98.9-77.1c-15.1,40.4-7.8,76.8,26.4,77.1h0c28,.4,65.3-32.7,95.9-69-14.5,37.6,2.4,69,42.6,69h0c21.7,0,57.7-15.8,64.6-63.1,1-3-.5-4.9-3-5.4ZM623,389.6h0c-30.1,0-3-50.8,26.6-93.2,39.9-57.2,70.5-99.1,99.6-99.1s14.8,3.9,14.8,15.8-8.8,36.9-20.1,57.7c-2.5-3.7-8.1-5.5-13.4-5.5-11.8,0-23.2,12.8-23.2,26.1s3.8,18.3,9.6,22.8c-35.1,48.4-72.9,75.3-93.9,75.3ZM1033.4,390.1c-37,0-3.9-51.8,28.6-93.7,36.5-46.9,76.4-98.1,111-98.1s-3.5,63.1-32.6,101.1c-41.4,54.7-82.4,90.7-107,90.7Z"/>
  <path d="M658.5,118.4c1-12.3-7.4-21.7-19.7-21.7s-22.2,9.4-23.2,21.7c-.5,12.3,7.9,21.7,20.2,21.7s21.7-9.4,22.7-21.7Z"/>
</svg>