<?xml version="1.0" encoding="UTF-8"?>
<svg fill="currentColor" id="b" data-name="Layer 2" xmlns="http://www.w3.org/2000/svg" viewBox="0 0 1529.03469 500">
  <defs>
    <style>
      .d {
        fill: currentColor;
      }
    </style>
  </defs>
  <g id="c" data-name="Layer 1">
    <g>
      <path class="d" d="M0,3.63734h126.18575c48.93602,0,77.52212,24.32381,77.52212,69.6385,0,44.99423-28.58607,70.23138-77.52212,70.23138H51.38764v75.99986H0V3.63734ZM51.38764,48.6476v49.84938h69.92693c19.75709,0,29.49942-9.42186,29.49942-24.91668,0-16.72863-9.74234-24.9327-29.49943-24.9327H51.38764Z"/>
      <path class="d" d="M413.20025,134.06933h-105.49931v85.43775h-51.69208V3.63734h51.69208v84.84489h105.49926V3.63734h51.37161v215.86977h-51.37157v-85.43778Z"/>
      <path class="d" d="M519.00399,111.57223c0-66.578,49.86539-111.57223,114.61671-111.57223,64.46291,0,114.3283,44.99423,114.3283,111.57223,0,65.69671-49.86539,111.58826-114.3283,111.58826-64.75132,0-114.61671-45.90759-114.61671-111.58826ZM695.34354,111.57223c0-36.18126-23.71489-65.36021-61.72284-65.36021-37.68746,0-62.0113,28.84246-62.0113,65.36021,0,36.85425,24.32379,65.37624,62.0113,65.37624,38.00795,0,61.72284-28.89054,61.72284-65.37624Z"/>
      <path class="d" d="M775.74988,3.63734h214.95645v45.01026h-81.72029v170.85951h-51.43577V48.6476h-81.72029l-.0801-45.01026Z"/>
      <path class="d" d="M1014.91796,130.43199c0-56.56325,42.27023-92.42405,95.77301-92.42405,54.12772,0,96.14152,35.86078,96.14152,92.42405,0,55.025-38.74502,92.42405-92.9368,92.42405-54.46416,0-98.97773-37.39905-98.97773-92.42405ZM1155.68513,130.43199c0-27.67273-17.62595-48.34316-44.99426-48.34316-27.06386,0-44.99426,20.67043-44.99426,48.34316,0,27.04781,17.9304,48.07075,44.99426,48.07075,27.32029-.03203,44.94624-21.32739,44.94624-48.07075h.04802Z"/>
      <path class="d" d="M372.51634,333.1624c0,7.89962,6.68186,12.46635,20.36596,13.68413l25.23715,2.13114c44.99421,3.33291,71.14472,19.45263,71.14472,58.06949,0,37.7035-27.96118,58.98282-81.47995,58.98282-63.2451,0-86.65556-31.3101-91.5107-56.54725h53.1983c3.34892,8.20407,14.59746,17.9304,38.3124,17.9304,19.75706,0,29.19498-6.68186,29.19498-16.40814,0-10.65568-8.22011-14.29306-21.59981-15.51082l-25.52556-2.43557c-42.87908-3.65342-68.75717-22.80158-68.75717-57.15616,0-36.48571,32.84835-55.04103,77.84261-55.04103,60.50508,0,81.1755,28.58607,86.04668,51.69208h-50.44232c-3.95783-5.7685-13.98861-13.07525-35.57238-13.07525-16.72858.00002-26.45491,4.2623-26.45491,13.68416Z"/>
      <path class="d" d="M550.63453,284.05012h126.18575c48.95204,0,77.52212,24.32382,77.52212,69.63852,0,44.99421-28.57003,70.23141-77.52212,70.23141h-74.81413v75.99986h-51.37161v-215.86979ZM602.00615,329.06036v49.84938h70.00705c19.7731,0,29.49943-9.42188,29.49943-24.91668,0-16.72863-9.72633-24.9327-29.49943-24.9327h-70.00705Z"/>
      <path class="d" d="M932.50866,462.52081h-102.77531l-16.02359,37.39905h-52.07666l94.53916-216.17421h52.87784l94.25075,216.17421h-54.68851l-16.10369-37.39905ZM913.96936,419.35326l-32.84835-76.32033-32.84835,76.32033h65.69671Z"/>
      <path class="d" d="M1046.82087,284.05012h126.4902c47.73423,0,76.91322,22.80156,76.91322,67.81181,0,30.44481-15.20637,50.76271-41.05242,60.20063l48.64759,87.85735h-54.48019l-45.60316-82.08885h-59.28727v82.08885h-51.62795v-215.86979ZM1098.51298,328.45148v45.90757h69.31805c19.75711,0,29.48344-7.6112,29.48344-22.43302,0-16.72863-10.03078-23.41046-29.48344-23.41046l-69.31805-.06408Z"/>
      <path class="d" d="M1358.15924,402.92908v96.99077h-51.61201v-215.86974h51.67607v93.33737l98.81743-93.33739h67.18689l-109.82563,104.07321,114.6327,111.87669h-70.50378l-100.37167-97.07092Z"/>
    </g>
  </g>
</svg>