<?xml version="1.0" encoding="UTF-8"?>
<svg fill="currentColor" id="b" data-name="Layer 2" xmlns="http://www.w3.org/2000/svg" viewBox="0 0 1498.89778 500">
  <defs>
    <style>
      .d {
        fill: currentColor;
      }
    </style>
  </defs>
  <g id="c" data-name="Layer 1">
    <g>
      <g>
        <path class="d" d="M0,133.63803V7.22351h53.81647c7.22351,0,13.87464,1.77761,19.95532,5.32725,6.07818,3.55299,10.92579,8.3694,14.53783,14.44758,3.61176,6.08096,5.41777,12.9123,5.41777,20.49735,0,7.70593-2.28844,14.80856-6.86253,21.30955-4.57688,6.50155-10.41524,11.25892-17.51759,14.26709l29.43663,50.74619-23.6576-.18049-26.72761-47.49569h-28.89488v47.49569H0ZM19.50382,67.36077h36.11839c5.29661,0,9.6618-1.92467,13.09307-5.77903,3.43127-3.85157,5.14676-8.60616,5.14676-14.26653,0-6.25867-2.19792-11.37757-6.59152-15.35059-4.39639-3.97302-9.96373-5.95952-16.70482-5.95952h-31.06188v41.35568Z"/>
        <path class="d" d="M161.62851,135.44405c-9.75205,0-18.39219-2.07675-25.91512-6.23026-7.52544-4.15406-13.42564-9.84229-17.6978-17.06636-4.27495-7.22351-6.41103-15.53052-6.41103-24.92159,0-9.99159,2.07675-18.75038,6.23026-26.27638,4.15378-7.52266,9.87042-13.42257,17.15633-17.69808,7.28284-4.2716,15.62132-6.4698,25.01211-6.59124,8.18585.12144,15.55893,2.167,22.12232,6.14001,6.5606,3.97302,11.73855,9.39107,15.53108,16.25304,3.79252,6.86253,5.56735,14.74951,5.32753,23.6576l-.18077,7.94603h-72.59805c1.0835,8.55045,4.60529,15.32218,10.56481,20.31686,5.95952,4.99746,13.51338,7.4948,22.66435,7.4948,4.69525,0,9.05766-.78157,13.09279-2.34805,4.03234-1.56314,8.39753-4.39304,13.09307-8.4875l9.39079,13.18303c-4.45572,4.334-10.11331,7.85578-16.97584,10.56481-6.86253,2.70847-13.66573,4.06326-20.40682,4.06326ZM160.00327,53.81619c-16.25332,0-25.94604,7.34495-29.07537,22.03207h53.09395v-1.26399c-.36098-3.97302-1.68736-7.52266-3.97302-10.65506-2.28844-3.12906-5.17795-5.59798-8.66827-7.404-3.49338-1.80602-7.2859-2.70903-11.3773-2.70903Z"/>
        <path class="d" d="M259.68962,135.44405c-7.82737,0-14.96092-2.167-21.40008-6.50155-6.44222-4.334-11.58898-10.23168-15.44056-17.69808-3.85464-7.46361-5.77903-15.89206-5.77903-25.28257,0-9.50972,1.95531-17.96881,5.86928-25.37337,3.9109-7.404,9.21002-13.21144,15.89206-17.42734,6.68176-4.21255,14.17657-6.3205,22.48358-6.3205,7.10235,0,13.39221,1.53528,18.8721,4.60529,5.47682,3.07001,9.66152,7.01461,12.55104,11.8288v-14.44758h18.78158v94.81089h-18.78158v-14.62807c-3.2505,4.57688-7.85578,8.45965-13.81531,11.64831-5.95952,3.18866-12.37055,4.78578-19.23308,4.78578ZM264.56565,118.28744c5.65759,0,10.65506-1.38264,14.98905-4.15351,4.33427-2.76808,7.73462-6.59124,10.20355-11.46726,2.46614-4.87602,3.70228-10.44337,3.70228-16.70482,0-6.14001-1.23614-11.61711-3.70228-16.43409-2.46893-4.81363-5.86928-8.60616-10.20355-11.37702-4.334-2.76863-9.33146-4.15406-14.98905-4.15406-5.53921,0-10.44616,1.38543-14.71832,4.15406-4.27495,2.77086-7.64688,6.56339-10.11303,11.37702-2.46921,4.81697-3.70228,10.29408-3.70228,16.43409,0,6.26145,1.23307,11.8288,3.70228,16.70482,2.46614,4.87602,5.83808,8.69919,10.11303,11.46726,4.27216,2.77086,9.1791,4.15351,14.71832,4.15351Z"/>
        <path class="d" d="M377.07378,135.44405c-8.66827,0-16.40568-2.13636-23.2061-6.41131-6.8032-4.27216-12.18978-10.11303-16.1628-17.51703-3.97302-7.40456-5.95952-15.86142-5.95952-25.37337,0-9.50917,1.95531-17.96881,5.86928-25.37337,3.9109-7.404,9.23815-13.24208,15.98231-17.51759,6.74109-4.2716,14.38519-6.41075,22.93508-6.41075,6.25867,0,12.19006,1.32638,17.78832,3.97302,5.59854,2.64942,10.08211,5.90047,13.45433,9.75205V0h18.60081v133.63803h-18.60081v-13.00254c-2.88952,4.09446-7.16446,7.58505-12.82205,10.47401-5.66066,2.88952-11.62018,4.33455-17.87885,4.33455ZM379.60231,119.3715c5.65759,0,10.65478-1.44504,14.98905-4.33455s7.73434-6.83134,10.20355-11.8288c2.46614-4.99412,3.702-10.68291,3.702-17.0658,0-6.38011-1.23586-12.0689-3.702-17.0658-2.46921-4.99468-5.86928-8.93928-10.20355-11.8288-4.33427-2.88952-9.33146-4.33455-14.98905-4.33455-5.66066,0-10.65506,1.44504-14.98933,4.33455-4.33427,2.88952-7.73713,6.83412-10.20327,11.8288-2.46921,4.99691-3.70228,10.68569-3.70228,17.0658,0,6.38289,1.23307,12.07168,3.70228,17.0658,2.46614,4.99746,5.869,8.93928,10.20327,11.8288s9.32867,4.33455,14.98933,4.33455Z"/>
        <path class="d" d="M488.49702,135.44405c-7.82737,0-14.96092-2.167-21.40008-6.50155-6.44222-4.334-11.58898-10.23168-15.44056-17.69808-3.85464-7.46361-5.77903-15.89206-5.77903-25.28257,0-9.50972,1.95531-17.96881,5.86928-25.37337,3.9109-7.404,9.21002-13.21144,15.89206-17.42734,6.68176-4.21255,14.17657-6.3205,22.48358-6.3205,7.10235,0,13.39221,1.53528,18.8721,4.60529,5.47682,3.07001,9.66152,7.01461,12.55104,11.8288v-14.44758h18.78158v94.81089h-18.78158v-14.62807c-3.2505,4.57688-7.85578,8.45965-13.81531,11.64831s-12.37055,4.78578-19.23308,4.78578ZM493.37304,118.28744c5.65759,0,10.65506-1.38264,14.98905-4.15351,4.33427-2.76808,7.73462-6.59124,10.20355-11.46726,2.46614-4.87602,3.70228-10.44337,3.70228-16.70482,0-6.14001-1.23614-11.61711-3.70228-16.43409-2.46893-4.81363-5.86928-8.60616-10.20355-11.37702-4.334-2.76863-9.33146-4.15406-14.98905-4.15406-5.53921,0-10.44616,1.38543-14.71832,4.15406-4.27495,2.77086-7.64688,6.56339-10.11303,11.37702-2.46921,4.81697-3.70228,10.29408-3.70228,16.43409,0,6.26145,1.23307,11.8288,3.70228,16.70482,2.46614,4.87602,5.83808,8.69919,10.11303,11.46726,4.27216,2.77086,9.1791,4.15351,14.71832,4.15351Z"/>
        <path class="d" d="M616.17469,135.44405c-6.14001,0-12.04021-1.41663-17.69808-4.24375-5.66038-2.82768-10.17514-6.16842-13.54429-10.02334v11.91905h-18.60109V0h18.60109v52.37171c2.88952-4.21311,7.19259-7.85578,12.9123-10.92579,5.71692-3.07001,11.64831-4.60529,17.78832-4.60529,8.54711,0,16.13188,2.10795,22.75459,6.3205,6.61993,4.2159,11.85721,10.02334,15.71157,17.42734,3.85157,7.40456,5.77903,15.86365,5.77903,25.37337,0,9.51195-1.89626,18.00001-5.68879,25.46362-3.79225,7.46584-9.0014,13.33511-15.62105,17.60728-6.62271,4.27495-14.08632,6.41131-22.39361,6.41131ZM613.10469,118.46849c5.53643,0,10.47429-1.41384,14.80856-4.24431,4.33427-2.82712,7.76554-6.68148,10.2938-11.55751s3.79252-10.44337,3.79252-16.70482c0-6.14001-1.23614-11.64831-3.70228-16.52433-2.46893-4.87602-5.86928-8.6964-10.20355-11.46782-4.334-2.76808-9.33146-4.15351-14.98905-4.15351-5.66038,0-10.65506,1.38543-14.98905,4.15351-4.33427,2.77142-7.76554,6.5918-10.2938,11.46782s-3.79252,10.38432-3.79252,16.52433c0,6.26145,1.26427,11.8288,3.79252,16.70482s5.95952,8.73038,10.2938,11.55751c4.334,2.83047,9.32867,4.24431,14.98905,4.24431Z"/>
        <path class="d" d="M680.46378,133.63803V0h18.60109v133.63803h-18.60109Z"/>
        <path class="d" d="M768.04949,135.44405c-9.75205,0-18.39219-2.07675-25.91512-6.23026-7.52544-4.15406-13.42564-9.84229-17.6978-17.06636-4.27495-7.22351-6.41103-15.53052-6.41103-24.92159,0-9.99159,2.07675-18.75038,6.23026-26.27638,4.15378-7.52266,9.87042-13.42257,17.15633-17.69808,7.28284-4.2716,15.62132-6.4698,25.01211-6.59124,8.18585.12144,15.55893,2.167,22.12232,6.14001,6.5606,3.97302,11.73855,9.39107,15.53108,16.25304,3.79252,6.86253,5.56735,14.74951,5.32753,23.6576l-.18077,7.94603h-72.59805c1.0835,8.55045,4.60529,15.32218,10.56481,20.31686,5.95952,4.99746,13.51338,7.4948,22.66435,7.4948,4.69525,0,9.05766-.78157,13.09279-2.34805,4.03234-1.56314,8.39753-4.39304,13.09307-8.4875l9.39079,13.18303c-4.45572,4.334-10.11331,7.85578-16.97584,10.56481-6.86253,2.70847-13.66573,4.06326-20.40682,4.06326ZM766.42424,53.81619c-16.25332,0-25.94604,7.34495-29.07537,22.03207h53.09395v-1.26399c-.36098-3.97302-1.68736-7.52266-3.97302-10.65506-2.28844-3.12906-5.17795-5.59798-8.66827-7.404-3.49338-1.80602-7.2859-2.70903-11.3773-2.70903Z"/>
      </g>
      <g>
        <path class="d" d="M419.1542,458.46383v-107.63294h-35.39588v-18.78158h91.37962v18.78158h-36.47965v107.63294h-19.50409Z"/>
        <path class="d" d="M520.82567,460.26985c-9.75205,0-18.39219-2.07675-25.91512-6.23026-7.52544-4.15406-13.42564-9.84229-17.6978-17.06636-4.27495-7.22351-6.41103-15.53052-6.41103-24.92159,0-9.99159,2.07675-18.75038,6.23026-26.27638,4.15378-7.52266,9.87042-13.42257,17.15633-17.69808,7.28284-4.2716,15.62132-6.4698,25.01211-6.59124,8.18585.12144,15.55893,2.167,22.12232,6.14001,6.5606,3.97302,11.73855,9.39107,15.53108,16.25304,3.79252,6.86253,5.56735,14.74951,5.32753,23.6576l-.18077,7.94603h-72.59805c1.0835,8.55045,4.60529,15.32218,10.56481,20.31686,5.95952,4.99746,13.51338,7.4948,22.66435,7.4948,4.69525,0,9.05766-.78157,13.09279-2.34805,4.03234-1.56314,8.39753-4.39304,13.09307-8.4875l9.39079,13.18303c-4.45572,4.334-10.11331,7.85578-16.97584,10.56481-6.86253,2.70847-13.66573,4.06326-20.40682,4.06326ZM519.20043,378.64199c-16.25332,0-25.94604,7.34495-29.07537,22.03207h53.09395v-1.26399c-.36098-3.97302-1.68736-7.52266-3.97302-10.65506-2.28844-3.12906-5.17795-5.59798-8.66827-7.404-3.49338-1.80602-7.2859-2.70903-11.3773-2.70903Z"/>
        <path class="d" d="M622.67931,460.26985c-8.78971,0-16.6455-2.167-23.56735-6.50155-6.92464-4.334-12.40147-10.23168-16.43381-17.69808-4.03513-7.46361-6.04977-15.82967-6.04977-25.10208,0-9.26963,2.01464-17.63624,6.04977-25.10264,4.03234-7.46305,9.50917-13.36352,16.43381-17.69752,6.92186-4.33455,14.77764-6.50155,23.56735-6.50155,8.42567,0,16.10096,1.71577,23.02533,5.14676,6.92186,3.43154,12.19006,8.09867,15.80182,13.9958l-10.29352,12.64156c-2.88952-4.21255-6.89373-7.76554-12.00957-10.65506-5.11863-2.88952-10.02278-4.334-14.71804-4.334-5.77903,0-10.92607,1.41663-15.44083,4.24375-4.51476,2.83047-8.09839,6.71324-10.74502,11.64831-2.6497,4.93786-3.97329,10.47457-3.97329,16.61458s1.38292,11.64831,4.15378,16.52433c2.76808,4.87602,6.43916,8.75879,11.01604,11.64775,4.57409,2.88952,9.63061,4.33455,15.16982,4.33455,9.75205,0,18.60109-4.81419,26.54712-14.44758l10.29352,12.64156c-3.85436,5.41749-9.36238,9.87349-16.52405,13.36408-7.16446,3.49004-14.59966,5.237-22.30309,5.237Z"/>
        <path class="d" d="M679.02181,458.46383v-133.63803h18.60109v53.6357c3.12933-4.69553,7.55385-8.66855,13.27356-11.91905,5.71692-3.2505,11.64803-4.87602,17.78832-4.87602,21.67109,0,32.50664,13.00254,32.50664,39.00763v57.78977h-18.60109v-56.52522c0-16.2536-6.68176-24.01914-20.04584-23.29662-4.69525,0-8.93928.99325-12.73153,2.97976-3.79252,1.98651-6.77229,4.66712-8.93928,8.03628-2.16728,3.37194-3.25078,7.16446-3.25078,11.37757v57.42823h-18.60109Z"/>
        <path class="d" d="M786.47175,458.46383v-94.81089h18.60109v14.80856c3.12933-4.69553,7.55385-8.66855,13.27356-11.91905,5.71692-3.2505,11.64803-4.87602,17.78832-4.87602,21.67109,0,32.50664,13.00254,32.50664,39.00763v57.78977h-18.60109v-56.52522c0-16.2536-6.68176-24.01914-20.04584-23.29662-4.69525,0-8.93928.99325-12.73153,2.97976-3.79252,1.98651-6.77229,4.66712-8.93928,8.03628-2.16728,3.37194-3.25078,7.16446-3.25078,11.37757v57.42823h-18.60109Z"/>
        <path class="d" d="M936.54179,460.26985c-9.27241,0-17.54864-2.13636-24.83176-6.41131-7.28562-4.27216-13.03346-10.11303-17.24657-17.51703-4.21562-7.40456-6.3205-15.86142-6.3205-25.37337,0-9.50917,2.10488-17.96881,6.3205-25.37337,4.21311-7.404,9.96095-13.24208,17.24657-17.51759,7.28312-4.2716,15.55935-6.41075,24.83176-6.41075,9.14763,0,17.36495,2.13914,24.65085,6.41075,7.28256,4.2755,13.0304,10.11359,17.24629,17.51759,4.21311,7.40456,6.3205,15.86421,6.3205,25.37337,0,9.51195-2.10739,17.96881-6.3205,25.37337-4.2159,7.404-9.96373,13.24487-17.24629,17.51703-7.2859,4.27495-15.50323,6.41131-24.65085,6.41131ZM936.54179,443.29429c5.65759,0,10.71411-1.41384,15.16954-4.24431,4.45265-2.82712,7.94603-6.68148,10.47457-11.55751,2.52798-4.87602,3.73013-10.38432,3.61148-16.52433.11866-6.25867-1.0835-11.8288-3.61148-16.70482-2.52854-4.87602-6.02191-8.6964-10.47457-11.46782-4.45544-2.76808-9.51195-4.15351-15.16954-4.15351-5.66093,0-10.7453,1.41663-15.2602,4.24375-4.51476,2.83047-8.03655,6.68204-10.56481,11.55806-2.52826,4.87602-3.7332,10.38432-3.61176,16.52433-.12144,6.14001,1.0835,11.64831,3.61176,16.52433s6.05005,8.73038,10.56481,11.55751c4.5149,2.83047,9.59927,4.24431,15.2602,4.24431Z"/>
        <path class="d" d="M1005.34536,458.46383v-133.63803h18.60109v133.63803h-18.60109Z"/>
        <path class="d" d="M1091.30554,460.26985c-9.27241,0-17.54823-2.13636-24.83134-6.41131-7.2859-4.27216-13.03374-10.11303-17.24685-17.51703-4.21534-7.40456-6.3205-15.86142-6.3205-25.37337,0-9.50917,2.10516-17.96881,6.3205-25.37337,4.21311-7.404,9.96095-13.24208,17.24685-17.51759,7.28312-4.2716,15.55893-6.41075,24.83134-6.41075,9.14818,0,17.36495,2.13914,24.65085,6.41075,7.28312,4.2755,13.03095,10.11359,17.24629,17.51759,4.21311,7.40456,6.32106,15.86421,6.32106,25.37337,0,9.51195-2.10795,17.96881-6.32106,25.37337-4.21534,7.404-9.96318,13.24487-17.24629,17.51703-7.2859,4.27495-15.50267,6.41131-24.65085,6.41131ZM1091.30554,443.29429c5.65759,0,10.71411-1.41384,15.16954-4.24431,4.45321-2.82712,7.94603-6.68148,10.47457-11.55751s3.73013-10.38432,3.61203-16.52433c.1181-6.25867-1.0835-11.8288-3.61203-16.70482s-6.02136-8.6964-10.47457-11.46782c-4.45544-2.76808-9.51195-4.15351-15.16954-4.15351-5.66038,0-10.7453,1.41663-15.25979,4.24375-4.51504,2.83047-8.03683,6.68204-10.56481,11.55806-2.52854,4.87602-3.73348,10.38432-3.61203,16.52433-.12144,6.14001,1.0835,11.64831,3.61203,16.52433,2.52798,4.87602,6.04977,8.73038,10.56481,11.55751,4.51449,2.83047,9.59941,4.24431,15.25979,4.24431Z"/>
        <path class="d" d="M1202.18731,500c-6.74388,0-13.45377-1.05509-20.13581-3.16025-6.68204-2.10795-12.07168-4.84761-16.1628-8.21677l6.86253-14.44758c3.61148,2.76808,8.09532,4.99468,13.45377,6.68204,5.35566,1.68458,10.68347,2.52798,15.98231,2.52798,20.10517,0,30.15915-9.51195,30.15915-28.53362v-11.37702c-1.68736,3.01096-4.1847,5.77903-7.4948,8.30701-3.31233,2.52854-7.04302,4.57688-11.19653,6.14001-4.15351,1.56369-8.39781,2.34805-12.73181,2.34805-9.02953,0-17.0658-2.13636-24.10883-6.41131-7.04302-4.27216-12.61315-10.11303-16.70482-17.51703-4.09446-7.40456-6.14001-15.86142-6.14001-25.37337,0-9.50917,2.01436-17.96881,6.04977-25.37337,4.03206-7.404,9.571-13.24208,16.61458-17.51759,7.04302-4.2716,14.95786-6.41075,23.74785-6.41075,6.61965,0,12.82205,1.50687,18.60053,4.51504,5.77903,3.0104,10.23168,6.44194,13.36408,10.29352v-12.82205h18.60109v89.03186c0,15.04866-4.33455,26.69641-13.00254,34.94493-8.66855,8.24462-20.58759,12.37027-35.75769,12.37027ZM1202.90983,443.11324c5.89769,0,11.13469-1.38264,15.71157-4.15351,4.57409-2.76808,8.12652-6.5606,10.65506-11.37702,2.52798-4.81419,3.79252-10.35312,3.79252-16.61458,0-6.25867-1.29519-11.8288-3.88277-16.70482-2.59037-4.87602-6.14057-8.6964-10.65506-11.46782-4.51504-2.76808-9.72364-4.15351-15.62132-4.15351-5.77903,0-10.92579,1.41663-15.44083,4.24375-4.51449,2.83047-8.06691,6.68204-10.6545,11.55806-2.59037,4.87602-3.88277,10.38432-3.88277,16.52433s1.2924,11.64831,3.88277,16.52433c2.58758,4.87602,6.14001,8.69919,10.6545,11.46726,4.51504,2.77086,9.6618,4.15351,15.44083,4.15351Z"/>
        <path class="d" d="M1289.41092,342.70437c-3.97302,0-7.04302-1.02166-9.21002-3.07001-2.167-2.04611-3.25105-4.93563-3.25105-8.66855,0-3.49059,1.11191-6.3205,3.3413-8.48806,2.22605-2.167,5.26541-3.2505,9.11977-3.2505,3.97302,0,7.04302,1.02445,9.21002,3.07001,2.16755,2.0489,3.25105,4.93842,3.25105,8.66855,0,3.49338-1.11469,6.3205-3.3413,8.48806-2.22883,2.167-5.2682,3.2505-9.11977,3.2505ZM1280.38139,458.46383v-94.81089h18.60109v94.81089h-18.60109Z"/>
        <path class="d" d="M1371.39976,460.26985c-9.75205,0-18.39219-2.07675-25.91484-6.23026-7.52544-4.15406-13.42592-9.84229-17.69808-17.06636-4.27495-7.22351-6.41075-15.53052-6.41075-24.92159,0-9.99159,2.07675-18.75038,6.23026-26.27638,4.15351-7.52266,9.87015-13.42257,17.15605-17.69808,7.28312-4.2716,15.62132-6.4698,25.01239-6.59124,8.18557.12144,15.55893,2.167,22.12232,6.14001,6.5606,3.97302,11.73855,9.39107,15.53108,16.25304,3.79252,6.86253,5.56735,14.74951,5.32725,23.6576l-.18049,7.94603h-72.59833c1.0835,8.55045,4.60529,15.32218,10.56481,20.31686,5.95952,4.99746,13.51338,7.4948,22.66435,7.4948,4.69553,0,9.05794-.78157,13.09279-2.34805,4.03262-1.56314,8.39781-4.39304,13.09335-8.4875l9.39051,13.18303c-4.45544,4.334-10.11303,7.85578-16.97556,10.56481-6.86253,2.70847-13.66601,4.06326-20.4071,4.06326ZM1369.77479,378.64199c-16.2536,0-25.94604,7.34495-29.07565,22.03207h53.09423v-1.26399c-.36098-3.97302-1.68736-7.52266-3.97302-10.65506-2.28844-3.12906-5.17795-5.59798-8.66855-7.404-3.49338-1.80602-7.2859-2.70903-11.37702-2.70903Z"/>
        <path class="d" d="M1464.58512,460.26985c-7.94603,0-15.11049-1.38543-21.4906-4.15351-6.38289-2.76808-11.67895-6.86253-15.89206-12.28058l12.64156-10.83555c3.61203,4.2159,7.55385,7.25471,11.8288,9.11977,4.27216,1.86841,9.11977,2.79927,14.53783,2.79927,4.45265,0,8.09532-1.0835,10.92579-3.2505,2.82712-2.167,4.24375-5.11556,4.24375-8.84904,0-3.12906-1.14589-5.65759-3.43154-7.58505-2.28844-1.80546-7.52544-3.79197-15.71101-5.95952-6.98397-1.80602-12.70396-3.85157-17.15661-6.14001-4.45544-2.28565-7.88698-4.87602-10.29352-7.76554-3.49338-4.334-5.23756-9.8111-5.23756-16.43353,0-5.29661,1.50409-9.99214,4.51504-14.0866,3.00817-4.09111,7.07143-7.31376,12.18978-9.66125,5.11612-2.34805,10.86396-3.52179,17.24685-3.52179,6.74109,0,13.27328,1.35423,19.59434,4.06326,6.3205,2.70903,11.40543,6.41131,15.25979,11.10628l-10.65506,11.73855c-3.49338-3.49059-7.37615-6.28931-11.64775-8.39726-4.27495-2.10516-8.15772-3.16025-11.64831-3.16025-5.17795,0-9.18217.96484-12.00929,2.88896-2.83047,1.92746-4.24431,4.75793-4.24431,8.48806.11866,3.2505,1.44504,5.90047,3.97302,7.94603,2.52854,2.0489,7.8842,4.09446,16.07311,6.14001,6.01857,1.56648,10.98484,3.28169,14.89881,5.14732,3.91062,1.86785,7.01183,4.00365,9.30026,6.41075,2.40709,2.28844,4.09167,4.93786,5.05651,7.94603.96206,3.01096,1.44504,6.38289,1.44504,10.11303,0,5.41805-1.53528,10.26566-4.60529,14.53783-3.07001,4.27495-7.19566,7.61569-12.37083,10.02278-5.1774,2.40709-10.95643,3.61203-17.33654,3.61203Z"/>
      </g>
      <path class="d" d="M384.60364,119.30816c8.97757,0,16.25327-7.2757,16.25327-16.25327,0-8.97511-7.2757-16.25331-16.25327-16.25331s-16.25331,7.27819-16.25331,16.25331c0,8.97757,7.2757,16.25327,16.25331,16.25327"/>
      <path class="d" d="M932.93369,433.26353c8.97757,0,16.25323-7.27571,16.25323-16.25329,0-8.97511-7.27566-16.25329-16.25323-16.25329s-16.25331,7.27819-16.25331,16.25329c0,8.97759,7.27566,16.25329,16.25331,16.25329"/>
      <path class="d" d="M500.48361,119.30816c8.97757,0,16.25327-7.2757,16.25327-16.25327,0-8.97511-7.2757-16.25331-16.25327-16.25331s-16.25331,7.27819-16.25331,16.25331c0,8.97757,7.2757,16.25327,16.25331,16.25327"/>
      <path class="d" d="M1081.74166,433.26353c8.97757,0,16.25323-7.27571,16.25323-16.25329,0-8.97511-7.27566-16.25329-16.25323-16.25329s-16.25331,7.27819-16.25331,16.25329c0,8.97759,7.27566,16.25329,16.25331,16.25329"/>
    </g>
  </g>
</svg>