<?xml version="1.0" encoding="UTF-8"?>
<svg id="b" data-name="Layer 2" xmlns="http://www.w3.org/2000/svg" viewBox="0 0 1747.09109 500">
  <g id="c" data-name="Layer 1">
    <g>
      <g>
        <polygon points="911.50969 159.95541 930.47135 175.12474 930.47135 267.79071 837.17964 156.41584 779.03022 156.41584 779.03022 160.46094 798.24477 182.62425 798.24477 314.68334 779.28299 329.85267 779.28299 333.39212 838.69648 333.39212 838.69648 329.85267 819.73481 314.68334 819.73481 207.41191 928.95451 333.39212 951.9614 333.39212 951.9614 310.63812 951.9614 293.44618 951.9614 175.12474 970.92306 159.95541 970.92306 156.41584 911.50969 156.41584 911.50969 159.95541"/>
        <polygon points="721.13369 311.90219 650.34308 311.90219 650.34308 257.03946 709.75657 257.03946 724.92602 272.71456 728.46547 272.71456 728.46547 220.88585 724.92602 220.88585 709.75657 235.54953 650.34308 235.54953 650.34308 179.16996 716.07717 179.16996 734.78618 201.16554 738.32563 201.16554 738.32563 156.41584 584.609 156.41584 584.609 159.95541 606.60458 174.11344 606.60458 316.9586 584.609 329.85267 584.609 333.39212 743.38215 333.39212 743.38215 289.9065 739.84259 289.9065 721.13369 311.90219"/>
        <path d="M486.26076,242.37578l19.46732,22.75411v33.37269c-10.11293,8.3432-20.22585,15.42222-40.70447,15.42222-22.50135,0-53.59866-18.7089-53.59866-73.8244,0-41.7159,28.0634-63.96436,60.17203-63.96436s48.03637,18.96178,56.63234,36.15372h3.53968v-61.68886h-3.53968l-17.44482,9.35451c-18.45601-4.80364-28.56894-6.57348-43.99115-6.57348-51.32317,0-104.41606,25.78803-104.41606,94.05025,0,57.391,39.94605,89.24673,90.76357,89.24673,20.22585,0,38.68198-3.2868,57.64365-9.60727l30.59178,12.3883h3.53945v-100.62373h-58.65495v3.53957Z"/>
        <path d="M1245.74216,196.86755c0-12.89396,11.377-23.25977,34.13123-23.25977,29.32736,0,39.69329,21.23728,45.76088,38.42922h3.53968v-61.68886h-3.53968l-17.44459,9.35439c-15.92799-4.80364-23.51265-6.06783-36.40672-6.06783-42.22143,0-69.27353,24.77684-69.27353,53.85143,0,62.70029,90.76357,45.00258,90.76357,85.96005,0,16.18064-11.62988,24.01819-36.91226,24.01819-33.62546,0-48.28926-22.50135-54.35708-39.69329h-3.53945v61.68886h3.53945l17.44482-9.35439c18.45613,4.80364,27.0521,6.82625,50.05898,6.82625,38.42933,0,67.75669-18.9619,67.75669-52.08171,0-64.72278-91.52199-47.02519-91.52199-87.98254Z"/>
        <polygon points="1502.35801 311.90219 1431.5674 311.90219 1431.5674 257.03946 1490.98101 257.03946 1506.15034 272.71456 1509.68979 272.71456 1509.68979 220.88585 1506.15034 220.88585 1490.98101 235.54953 1431.5674 235.54953 1431.5674 179.16996 1497.30148 179.16996 1516.01026 201.16554 1519.54995 201.16554 1519.54995 156.41584 1365.83332 156.41584 1365.83332 159.95541 1387.8289 174.11344 1387.8289 316.9586 1365.83332 329.85267 1365.83332 333.39212 1524.60647 333.39212 1524.60647 289.9065 1521.06679 289.9065 1502.35801 311.90219"/>
        <path d="M1650.00681,152.87628c-45.00269,0-95.56721,26.29368-95.56721,94.55591,0,57.391,42.47432,89.49962,97.08405,89.49962,45.00269,0,95.56744-26.29368,95.56744-94.55602,0-57.39088-42.47432-89.4995-97.08428-89.4995ZM1651.77653,317.71714c-34.38388,0-51.57606-34.63676-51.57606-74.58282,0-41.96878,17.19218-70.53772,48.79503-70.53772,34.63676,0,51.8287,34.63676,51.8287,74.58282,0,41.96866-17.19194,70.53772-49.04768,70.53772Z"/>
        <polygon points="1138.29218 311.90219 1067.50169 311.90219 1067.50169 257.03946 1126.91518 257.03946 1142.08451 272.71456 1145.62419 272.71456 1145.62419 220.88585 1142.08451 220.88585 1126.91518 235.54953 1067.50169 235.54953 1067.50169 179.16996 1133.23566 179.16996 1151.94467 201.16554 1155.48435 201.16554 1155.48435 156.41584 1001.76761 156.41584 1001.76761 159.95541 1023.7633 174.11344 1023.7633 316.9586 1001.76761 329.85267 1001.76761 333.39212 1160.54064 333.39212 1160.54064 289.9065 1157.00119 289.9065 1138.29218 311.90219"/>
      </g>
      <g>
        <path d="M364.39493,408.58527h37.77701v4.85539h-16.2825v43.84625h-5.21296v-43.84625h-16.28155v-4.85539Z"/>
        <path d="M448.87308,433.93587h-27.77923v23.35104h-5.21296v-48.70164h5.21296v20.49426h27.77923v-20.49426h5.14144v48.70164h-5.14144v-23.35104Z"/>
        <path d="M470.93876,408.58527h25.20851v4.85539h-20.06612v15.49585h18.56622v4.78482h-18.56622v18.78076h21.49451v4.78482h-26.6369v-48.70164Z"/>
        <path d="M530.63654,453.71594v-5.35504c2.28561,1.99956,8.14125,4.57028,13.49629,4.57028,8.21276,0,11.92582-3.49946,11.92582-8.21276,0-11.92488-24.6364-9.35415-24.6364-24.27977,0-7.42611,5.35598-12.35396,16.56761-12.35396,5.06993,0,9.35415,1.35687,11.13917,2.42864v5.28447c-1.78501-1.21479-6.49832-2.78526-11.13917-2.78526-8.71241,0-11.28314,3.78457-11.28314,7.42611,0,10.56894,24.6364,8.35579,24.6364,24.13675,0,7.71311-5.21296,13.13967-16.78121,13.13967-5.99867,0-11.42616-2.07013-13.92537-3.99911Z"/>
        <path d="M570.76973,408.58527h37.77701v4.85539h-16.2825v43.84625h-5.21296v-43.84625h-16.28155v-4.85539Z"/>
        <path d="M647.037,445.36109h-24.35129l-5.21296,11.92582h-5.42656l21.6366-48.70164h2.57166l21.6366,48.70164h-5.6411l-5.21296-11.92582ZM644.96593,440.7193l-10.06835-23.1365-10.1408,23.1365h20.20915Z"/>
        <path d="M661.31805,408.58527h37.77701v4.85539h-16.2825v43.84625h-5.21296v-43.84625h-16.28155v-4.85539Z"/>
        <path d="M712.80495,408.58527h25.20851v4.85539h-20.06612v15.49585h18.56622v4.78482h-18.56622v18.78076h21.49451v4.78482h-26.6369v-48.70164Z"/>
        <path d="M774.50229,443.29002v-34.70475h5.21296v33.84847c0,7.06949,4.99842,10.3544,13.42478,10.3544,8.4273,0,14.35351-3.2134,14.35351-10.42592v-33.77696h5.07087v34.56266c0,9.92532-8.06973,14.56711-19.63798,14.56711-11.63976,0-18.42414-4.71236-18.42414-14.42503Z"/>
        <path d="M834.12949,420.0105v37.27641h-5.07087v-48.70164h1.99956l31.13566,36.7043v-36.7043h5.06993v48.70164h-1.35687l-31.7774-37.27641Z"/>
        <path d="M884.25857,457.28691v-48.70164h5.21296v48.70164h-5.21296Z"/>
        <path d="M926.60586,457.28691h-2.57166l-21.6366-48.70164h5.71261l17.35237,39.56108,17.35332-39.56108h5.42656l-21.6366,48.70164Z"/>
        <path d="M961.09513,408.58527h25.20851v4.85539h-20.06612v15.49585h18.56622v4.78482h-18.56622v18.78076h21.49451v4.78482h-26.6369v-48.70164Z"/>
        <path d="M1003.15542,408.58527h15.28225c8.71241,0,14.71108,3.2134,14.71108,12.99664,0,7.3546-4.07062,12.92512-11.71222,14.99619l16.71064,20.7088h-6.28378l-15.99644-19.78101h-7.56914v19.78101h-5.14239v-48.70164ZM1008.2978,413.36915v19.42438h7.42611c5.99867,0,12.14036-2.28561,12.14036-10.56894,0-7.78368-5.07087-8.85544-9.92626-8.85544h-9.64021Z"/>
        <path d="M1047.14469,453.71594v-5.35504c2.28561,1.99956,8.14125,4.57028,13.49629,4.57028,8.21276,0,11.92582-3.49946,11.92582-8.21276,0-11.92488-24.6364-9.35415-24.6364-24.27977,0-7.42611,5.35598-12.35396,16.56761-12.35396,5.06993,0,9.35415,1.35687,11.13917,2.42864v5.28447c-1.78501-1.21479-6.49832-2.78526-11.13917-2.78526-8.71241,0-11.28314,3.78457-11.28314,7.42611,0,10.56894,24.6364,8.35579,24.6364,24.13675,0,7.71311-5.21296,13.13967-16.78121,13.13967-5.99867,0-11.42616-2.07013-13.92537-3.99911Z"/>
        <path d="M1092.98955,457.28691v-48.70164h5.21296v48.70164h-5.21296Z"/>
        <path d="M1111.9124,408.58527h37.77701v4.85539h-16.2825v43.84625h-5.21296v-43.84625h-16.28155v-4.85539Z"/>
        <path d="M1183.32334,457.28691h-5.21296v-20.06612l-19.85252-28.63551h5.92715l16.49609,23.92221,15.85341-23.92221h5.6411l-18.85228,28.564v20.13764Z"/>
        <path d="M1256.01869,408.15619c13.7814,0,23.27953,9.92626,23.27953,23.92315,0,16.28155-11.42616,25.63571-24.4228,25.63571-13.78235,0-23.20801-10.21138-23.20801-24.27883,0-14.71108,9.78324-25.28002,24.35129-25.28002ZM1255.01844,452.85966c10.21138,0,18.92379-7.64159,18.92379-20.49521,0-11.56825-7.56914-19.06682-18.06657-19.06682-11.63976,0-18.85228,8.78393-18.85228,20.13858,0,11.63976,7.42611,19.42344,17.99506,19.42344Z"/>
        <path d="M1293.9359,408.58527h25.20851v4.85539h-20.06612v15.49585h18.56622v4.78482h-18.56622v23.56558h-5.14239v-48.70164Z"/>
        <path d="M1358.77701,420.0105v37.27641h-5.07087v-48.70164h1.99956l31.13566,36.7043v-36.7043h5.06993v48.70164h-1.35687l-31.7774-37.27641Z"/>
        <path d="M1408.76306,408.58527h25.20851v4.85539h-20.06612v15.49585h18.56622v4.78482h-18.56622v18.78076h21.49451v4.78482h-26.6369v-48.70164Z"/>
        <path d="M1481.81599,419.58236l-15.35282,37.70455h-2.57072l-16.85366-48.70164h5.64204l12.99664,38.13269,15.49585-38.13269h1.4999l15.42433,38.20421,13.06815-38.20421h5.4275l-16.92423,48.70164h-2.57072l-15.28225-37.70455Z"/>
        <path d="M1570.07776,457.28691h-5.21296v-20.06612l-19.85252-28.63551h5.92715l16.49609,23.92221,15.85341-23.92221h5.6411l-18.85228,28.564v20.13764Z"/>
        <path d="M1619.70908,408.15619c13.7814,0,23.27953,9.92626,23.27953,23.92315,0,16.28155-11.42616,25.63571-24.4228,25.63571-13.78235,0-23.20801-10.21138-23.20801-24.27883,0-14.71108,9.78324-25.28002,24.35129-25.28002ZM1618.70883,452.85966c10.21138,0,18.92379-7.64159,18.92379-20.49521,0-11.56825-7.56914-19.06682-18.06657-19.06682-11.63976,0-18.85228,8.78393-18.85228,20.13858,0,11.63976,7.42611,19.42344,17.99506,19.42344Z"/>
        <path d="M1657.62629,408.58527h15.28225c8.71241,0,14.71108,3.2134,14.71108,12.99664,0,7.3546-4.07062,12.92512-11.71222,14.99619l16.71064,20.7088h-6.28378l-15.99644-19.78101h-7.56914v19.78101h-5.14239v-48.70164ZM1662.76867,413.36915v19.42438h7.42611c5.99867,0,12.14036-2.28561,12.14036-10.56894,0-7.78368-5.07087-8.85544-9.92626-8.85544h-9.64021Z"/>
        <path d="M1719.03851,431.36515l-7.92671,8.28333v17.63843h-5.21296v-48.70164h5.21296v24.35035l23.28047-24.35035h6.49832l-18.28111,19.06588,19.78101,29.56425h-6.07018l-17.2818-25.85025Z"/>
      </g>
      <path d="M293.3391,350.7986v-187.05568l-5.05711-2.89089c-4.72918-2.70334-9.57999-5.35663-14.537-7.96499v-73.92532C185.60706,27.19242,73.59398,6.76467,25.55961,0v77.09332c-5.00983-.76407-9.69079-1.43815-13.99847-2.02861l-11.40287-1.56301v277.29055c-.08098.69955-.16326,1.75808-.15802,3.13524-.00529,3.6119.59022,9.60475,3.44259,17.70618,1.97574,5.60575,4.80123,11.53002,8.40048,17.61455l.04899.08839.12932.23524.14179.22801.12738.20631.05734.0978c.07622.13079.15267.26147.2336.39585.18419.30299.35522.57687.52459.84758l.1175.18819.15726.25388.39691.64145.04434.07181.04564.0711.30999.4813.20043.31075c3.80021,5.95221,8.36979,12.10307,13.56422,18.25417.38774.47395,1.20867,1.44327,2.30984,2.68434.59416.6645,1.32541,1.46897,2.20445,2.41346,1.91869,2.07507,4.04098,4.26917,6.2859,6.49785,14.91151,14.96332,54.81622,52.14434,103.78679,74.82941l4.22,1.95486,4.21988-1.95486c48.96816-22.68466,88.87752-59.86921,103.78844-74.83129,2.26691-2.25168,4.39032-4.44748,6.31142-6.52649.83781-.90051,1.57494-1.70756,2.16716-2.37347,1.19997-1.34941,1.97697-2.27349,2.31948-2.69175,5.18332-6.14099,9.7436-12.27856,13.55545-18.24406.1809-.27735.36039-.55835.53553-.83364.15961-.25277.29441-.47048.42908-.68808l.20219-.32628.21125-.3394c.13068-.20931.26147-.41932.38768-.62516.10586-.17355.19372-.32287.28123-.47278l.07304-.12415.018-.03011.01788-.03035.04599-.07628.07681-.12791c.08739-.14367.16679-.28111.24442-.42008,3.60073-6.08018,6.43716-12.02415,8.41907-17.64725,2.85466-8.10326,3.45088-14.09986,3.44641-17.71265.00259-1.12628-.05269-2.19392-.16091-3.12536ZM116.61706,35.64913l.58734-.12244c11.89294,14.67438,16.49163,26.97006,18.49365,35.90825,3.50487,15.64223-2.54702,27.03787.95673,42.67986.28841,1.28813.6128,2.62783.99578,4.01693,5.38539,9.99772,10.13257,1.95627,6.93775-12.88455,12.14224,17.78034,9.73231,52.23144,9.73231,52.23144-2.95381-8.57186-10.78548-20.35283-17.65701-27.60845-13.89503-12.77181-26.53392-26.60273-29.67381-38.42181-4.17148-18.62156,11.43775-25.77115,9.62727-55.79923ZM91.8017,98.66628h.75742c4.54581,11.92823,10.60711,27.03734,10.60711,50.09862,0,61.23167-33.33617,52.48432-33.33617,95.42595,0,19.8984,13.01928,41.15467,31.81133,51.75831-10.23825-16.5712-14.24571-46.8891-11.35518-61.30089h.75801c13.63744,35.7848,40.91231,36.57992,40.91231,53.2795,0,6.3617-5.30329,13.5187-15.15286,13.5187-.21084,0-.41014-.00112-.61433-.00165,6.08218,2.15975,12.40712,3.9777,18.0401,3.9777,15.15286,0,20.45663-9.54258,20.45663-20.67552-.75736-33.39916-50.76241-25.44704-50.76241-64.41255,0-33.39916,18.94126-37.37521,18.94126-57.25562,0-6.36182-1.51543-15.10911-7.57614-26.24216l.75742-1.59047c18.9412,15.90446,35.60902,31.80875,36.36697,49.30344,0,15.10917-14.39539,19.88052-14.39539,39.76086,0,8.74729,4.54581,15.90429,12.87996,15.90429,16.66841,0,25.76003-17.49475,25.76003-36.57992-.75748-18.28993-11.36453-21.47081-12.1226-53.2795,0-26.24204,12.1226-46.12256,24.24508-60.43638l.75748.79518c-1.51543,7.95211-2.27291,14.31393-2.27291,19.88034.72772,39.74075,40.63649,42.76549,43.7445,85.99828,1.6988,14.8744-4.33515,29.75938-12.45888,35.75463-6.27331,4.62968-11.12894,9.3154-14.90633,13.46459-2.02296,2.22198-3.72341,4.3011-5.13745,6.17245-4.21836,5.58182-5.88575,9.29875-5.88575,9.29875-2.86572-21.85449,18.12432-27.30775,19.63493-53.04955-.23348-20.40293-7.85966-42.36999-26.50646-67.42094h-.75748c8.33415,20.67569,12.12189,34.19433,12.12189,46.12256,0,28.62781-25.00185,41.35127-25.00185,67.59349,0,15.90429,9.84899,20.67546,18.9412,20.67546,12.12201,0,28.79042-11.13305,39.39747-31.01339h.75748c-3.03038,33.39916-23.37315,69.81382-81.71182,87.3084-59.85357-15.10911-98.60742-64.24712-98.60742-104.8031,0-69.97914,42.42827-58.84608,40.91284-128.02987ZM72.49693,348.30604s15.09993,14.14703,37.26012,13.78952c11.71022.1889,21.4467-3.67248,28.02735-7.35642,2.85889-1.66181,5.7539-3.63249,8.67289-5.93938.36251-.31075.55988-.49371.55988-.49371.01294.01035.02552.01947.03799.0297.01306-.01023.02552-.01935.03858-.0297,0,0,.19725.18296.55976.49348,2.91912,2.30725,5.814,4.27805,8.6736,5.93997,6.58054,3.68383,16.31661,7.54497,28.02671,7.35607,22.15978.35751,37.25959-13.78952,37.25959-13.78952,13.08309,10.55195,25.70663,14.19837,36.771,14.37363-40.06603,28.79695-73.70313,4.89185-74.03059,4.60004-.21925.19513-15.33165,10.94351-37.29864,9.4399-21.96641,1.50361-37.07881-9.24477-37.29811-9.4399-.32799.29182-33.96503,24.19691-74.03053-4.60004,11.06436-.17484,23.68779-3.82168,36.77041-14.37363ZM147.0554,402.14871c-.32781.29176-33.96497,24.19691-74.03041-4.60009,11.06407-.17478,23.68755-3.82168,36.77053-14.37357,0,0,15.09988,14.14703,37.25989,13.78952,22.15989.35751,37.25995-13.78952,37.25995-13.78952,13.08285,10.55189,25.7064,14.19831,36.77053,14.37357-40.06556,28.79701-73.70266,4.89185-74.03047,4.60009ZM183.92555,431.54264c-2.7648,2.07019-5.61604,4.11597-8.52199,6.14504-.2777.23318-.5854.47795-.9619.74942-3.87161,2.79132-20.46839,11.97192-26.46023,15.26437-.41567.22848-.7803.42838-1.08611.59604-.30581-.16767-.6702-.36757-1.08588-.59604-5.99196-3.29244-22.58886-12.47305-26.46047-15.26437-.1909-.1375-.34686-.26159-.51136-.38915-4.4476-3.13248-7.34895-6.04119-8.2938-7.01985,21.96794.18102,36.91467-12.21916,36.91467-12.21916,7.76768,5.55465,15.3707,8.9406,22.58439,10.81706,4.82657,1.25554,9.47648,1.833,13.88268,1.91663ZM278.60873,372.29847c-1.849,5.06546-4.48077,10.3998-7.82379,15.86077l-.02823.04764-.15573.27223-.16949.26394-.08598.13432-.03082.05022c-.07587.12574-.15185.2513-.23218.3805-.18502.29341-.35239.55323-.51965.80976l-.08375.12909-.26641.41573-.23277.36457-.05505.08586-.05669.08492-.32816.49142-.12985.19402c-3.51757,5.31646-7.71993,10.77678-12.48805,16.22933-.36721.43214-1.08999,1.25866-2.14799,2.41029-.55705.60081-1.23149,1.31782-2.04284,2.15923-1.74444,1.82207-3.68977,3.76346-5.7519,5.74008-13.58945,13.16619-49.96535,45.88444-94.66494,65.87558l-4.56287,2.04072v.25618l-.00106.00071-.28652-.12821-.28652.12821-.00106-.00071v-.25618l-4.56298-2.04072c-44.69953-19.99114-81.07537-52.70939-94.66488-65.87558-2.06207-1.97662-4.00746-3.91801-5.7519-5.74008-.81141-.8414-1.48573-1.55842-2.04284-2.15923-1.058-1.15163-1.78078-1.97815-2.14793-2.41029-4.76817-5.45255-8.97053-10.91287-12.48805-16.22933l-.12991-.19402-.3281-.49142-.05669-.08492-.05505-.08586-.23283-.36457-.26641-.41573-.08369-.12909c-.16737-.25653-.33469-.51636-.51965-.80976-.08039-.12921-.15632-.25477-.2323-.3805l-.03082-.05022-.08586-.13432-.16955-.26394-.15579-.27223-.02811-.04764c-3.34302-5.46096-5.97479-10.7953-7.82385-15.86077-.33963-.93115-.64556-1.833-.92127-2.70522-.16161-.4312-.33881-.87775-.48542-1.29377-.10092-.28658-.17837-.54758-.27253-.82693.09416.27935.17161.54029.27253.82687.14661.41597.32375.8624.48536,1.29348-1.93369-6.1177-2.37112-10.77072-2.36777-13.73859-.00494-1.21379.06222-2.19128.14314-2.91876V90.63984l5.15132.70625c1.69215.23201,3.44376.47725,5.25095.73601v258.70221c-.07375.67156-.13597,1.57394-.13156,2.69458-.00329,3.13095.52406,8.29286,3.03697,15.18256,1.70756,4.67684,4.13737,9.60181,7.22386,14.64398l.02535.04393.14367.25141.15685.24359.07928.12415.02805.04623c.07045.11615.14097.23201.21525.35133.17008.27094.32534.51095.47895.74766l.07704.11903.24659.38415.21525.33657.05122.07916.05228.07845.30217.45355.1195.17931c3.24834,4.90861,7.12806,9.94985,11.53073,14.9842.33857.39879,1.00572,1.16215,1.98338,2.22527.51359.55464,1.13675,1.21655,1.88593,1.99356,1.61064,1.68227,3.4063,3.47487,5.31041,5.29982,12.54691,12.15594,46.13244,42.36405,87.40191,60.82141l4.45536,1.99262,4.45524-1.99262c41.26952-18.45736,74.85499-48.66547,87.40197-60.82141,1.90416-1.82495,3.69977-3.61755,5.31047-5.29982.74925-.777,1.37228-1.43892,1.88593-1.99356.97766-1.06312,1.64481-1.82648,1.98332-2.22527,4.40267-5.03435,8.28239-10.07558,11.53085-14.9842l.11939-.17931.30217-.45355.05234-.07845.05117-.07916.21525-.33657.24653-.38415.07716-.11903c.15361-.23671.30887-.47672.47895-.74766.07434-.11933.14467-.23518.21525-.35133l.02799-.04623.07928-.12415.15691-.24359.14373-.25141.02517-.04393c3.08661-5.04217,5.51642-9.96714,7.22392-14.64398,2.51297-6.8897,2.91253-11.92388,2.90924-15.05483.00435-1.12063-.00388-1.81201-.00388-2.82231v-184.28094l10.40239,6.19174v180.24043c0,1.08499.02023,1.83271.01529,3.0465.004,3.39107-.43967,8.85421-3.1613,16.31643Z"/>
    </g>
  </g>
</svg>