<?xml version="1.0" encoding="UTF-8"?>
<svg id="b" data-name="Layer 2" xmlns="http://www.w3.org/2000/svg" viewBox="0 0 614.72571 500">
  <g id="c" data-name="Layer 1">
    <g>
      <g>
        <path d="M0,3.37051h40.37712l11.01194,136.50972h.66769L64.06858,3.37051h41.37864l12.01184,135.16085h1.00153L128.80485,3.37051h34.05031l-28.0298,240.99878h-37.05327l-13.015-146.62124h-1.66759l-13.34721,146.62124H28.69749L0,3.37051Z"/>
        <path d="M188.7205,3.37051h60.33359l27.6385,240.32434h-41.79497l-5.05659-53.25535h-26.96407l-5.73102,53.25535h-35.72838L188.7205,3.37051ZM226.13331,154.03669l-8.76266-94.71475h-1.01165l-9.4371,94.71475h19.21141Z"/>
        <path d="M286.75992,198.52938V48.19877c0-29.66015,20.56027-48.19877,51.23371-48.19877,28.98736,0,46.85155,17.86419,46.85155,46.85155v44.49104h-39.09889v-40.4461c0-6.40545-2.36051-11.12317-8.76431-11.12317s-8.42545,4.04494-8.42545,10.11153v145.6096c0,6.40545,3.03329,11.12317,8.76266,11.12317,6.4038,0,8.42709-5.05494,8.42709-11.12317v-39.09889h39.09889v40.78496c0,28.98736-17.18976,49.88484-48.53763,49.88484-32.69509,0-49.54763-18.53862-49.54763-48.53598Z"/>
        <path d="M402.03658,3.37051h41.45775v100.44412h17.1914V3.37051h41.12054v240.32434h-41.12054v-100.44412h-17.1914v100.44412h-41.45775V3.37051Z"/>
        <path d="M517.98931,170.55202h38.76332c0,28.98736,3.37051,39.09889,10.78596,39.09889,5.05494,0,7.07823-4.38051,7.07823-12.47039,0-9.77431-5.05659-23.59356-16.17976-43.48104l-17.52697-31.68344c-10.78596-19.55027-22.24634-44.15547-22.24634-70.10954,0-26.62685,12.80925-51.90649,48.20041-51.90649,34.71673,0,46.85155,21.57191,46.17712,71.11954h-37.41446c0-17.18976-1.68443-35.72838-9.09988-35.72838-6.4038,0-7.75266,5.72937-7.75266,13.48203,0,13.81925,12.47039,38.08889,18.53862,48.87484l12.8076,24.26799c11.12317,20.56027,24.60521,46.17712,24.60521,72.13119,0,26.28964-14.82925,52.91814-47.86155,52.91814-29.99901,0-52.24535-19.88584-48.87484-76.51334Z"/>
        <path d="M4.71945,259.3508h52.24371l13.48368,88.98373h.67279l15.50533-88.98373h48.20041v240.32434h-37.07724v-169.2048h-.67443l-14.8309,96.7364h-24.26799l-15.50533-96.7364h-.67279v169.2048H4.71945v-240.32434Z"/>
        <path d="M174.15998,259.3508h60.33359l27.6385,240.32434h-41.79497l-5.05659-53.25535h-26.96407l-5.73102,53.25535h-35.72838l27.30293-240.32434ZM211.57279,410.01698l-8.76266-94.71475h-1.01165l-9.4371,94.71475h19.21141Z"/>
        <path d="M275.30117,259.3508h43.81826l28.31293,117.97109h1.34722v-117.97109h36.06559v240.32434h-40.78332l-31.68344-132.46478h-1.34886v132.46478h-35.72838v-240.32434Z"/>
      </g>
      <rect x="402.03658" y="259.3508" width="210.65997" height="240.6492"/>
    </g>
  </g>
</svg>