<?xml version="1.0" encoding="UTF-8"?>
<svg id="b" data-name="Layer 2" xmlns="http://www.w3.org/2000/svg" viewBox="0 0 3161.775839 400">
  <style>
    path { fill: #111111; }
    @media (prefers-color-scheme: dark) { path { fill: #ffffff; } }
  </style>
  <g id="c" data-name="Layer 1">
    <g>
      <path d="M74.54052,12.598421l49.343678,254.593432,7.873944,45.669207h1.050006l9.448953-45.669207L197.899714,12.598421h91.338414l51.968692,254.593432,9.448953,46.19421h2.100011l8.398947-46.19421L412.597323,12.598421h74.541618l-60.892642,254.593432-27.821856,120.209727h-94.488431l-23.09683-120.209727-37.269711-184.776839h-1.050006l-39.894725,184.776839-24.672937,120.209727h-93.96233l-26.246847-120.209727L0,12.598421h74.54052Z"/>
      <path d="M774.295729,72.441057h-173.228973v96.587893h162.205012v58.267628h-162.205012v100.262364h174.802884v59.842636h-245.144479V12.598421h243.570569v59.842636Z"/>
      <path d="M911.318177,12.598421v314.960522h173.752878v59.842636h-244.093375V12.598421h70.340497Z"/>
      <path d="M1044.130718,12.598421h289.239226v59.842636h-109.186314v314.960522h-70.341595V72.441057h-109.711317V12.598421Z"/>
      <path d="M1377.996285,387.401579V12.598421h70.341595v170.603959L1600.568936,12.598421h85.564481l-144.882115,157.480535,146.457123,217.322623h-81.890559l-109.711317-169.028951-47.768669,51.968692v117.060259h-70.341595Z"/>
      <path d="M1974.335818,72.441057h-173.227875v96.587893h162.205012v58.267628h-162.205012v100.262364h174.802884v59.842636h-245.14338V12.598421h243.568372v59.842636Z"/>
      <path d="M2039.967764,12.598421h144.357112c86.089484,0,134.908159,44.094748,134.908159,106.561849,0,55.643163-34.120792,88.713949-74.015517,99.212358,34.645795,9.973956,46.718664,38.845268,59.317634,79.789999,10.498959,34.120792,18.897906,61.942099,32.02078,86.089484v3.149468h-71.915505c-12.073967-22.047374-20.997917-55.11816-32.02078-86.089484-12.59897-34.645246-29.396865-58.267628-75.590525-58.267628h-46.719762v143.832109h-70.341595V12.598421ZM2180.650954,186.351848c44.093649,0,69.291589-23.621833,69.291589-60.367639,0-32.02078-22.047923-56.167616-70.866598-56.167616h-68.766587v116.535256h70.341595Z"/>
      <path d="M2481.969639,12.598421l113.91134,207.349216c16.272892,31.495778,29.920769,58.792631,40.419728,79.264996-1.050006-29.396315-1.575009-60.367639-1.575009-95.012885V12.598421h68.766587v374.803158h-92.38842l-105.511294-188.45131c-19.422909-39.895274-38.320815-72.96606-49.344776-95.537888,1.050006,28.34631,1.050006,68.241035,1.050006,102.361826v181.627372h-68.765488V12.598421h93.437327Z"/>
      <path d="M2758.626371,198.950269c0-112.860785,92.38842-198.950269,202.099737-198.950269,109.186314,0,201.049731,86.614487,201.049731,198.950269,0,114.960796-91.863417,201.049731-201.049731,201.049731-109.711317,0-202.099737-86.088935-202.099737-201.049731ZM2803.246121,198.950269c0,93.438425,70.340497,162.204463,157.479986,162.204463,86.614487,0,156.429981-68.766037,156.429981-162.204463,0-90.288958-69.815494-160.105001-156.429981-160.105001-87.13949,0-157.479986,69.29104-157.479986,160.105001ZM3027.392683,245.144479c-6.298936-17.8479-9.448953-29.921318-26.246847-36.220803,18.897906-5.24893,35.6958-22.571828,35.6958-51.968143,0-33.070786-27.821856-53.543151-70.866598-53.543151h-74.54052v187.401305h44.094748v-66.666575h18.897906c18.896808.525003,25.196842,10.498409,30.445772,25.721845,5.24893,16.272892,8.398947,33.070786,16.797894,40.944731h43.044742v-2.099462c-8.398947-13.648427-11.548964-26.77185-17.322897-43.569745ZM2935.529266,188.976313v-48.293672h27.821856c17.846802,0,30.445772,7.348942,30.445772,22.571828,0,15.223435-12.073967,25.721845-30.445772,25.721845h-27.821856Z"/>
    </g>
  </g>
</svg>