<?xml version="1.0" encoding="UTF-8"?>
<svg fill="currentColor" id="b" data-name="Layer 2" xmlns="http://www.w3.org/2000/svg" viewBox="0 0 1878.60157 500">
  <defs>
    <style>
      .d {
        fill-rule: evenodd;
      }
    </style>
  </defs>
  <g id="c" data-name="Layer 1">
    <g>
      <g>
        <polygon points="356.12649 171.17039 297.76144 2.21906 212.09112 2.21906 152.36097 172.19425 93.65467 2.21906 3.20598 2.21906 97.75044 227.4875 200.82779 227.4875 236.66595 131.23658 254.0731 72.18869 256.12093 72.18869 273.86933 131.23658 309.36613 227.4875 409.37169 227.4875 496.74847 2.21906 415.17403 2.21906 356.12649 171.17039"/>
        <rect x="503.57478" y="2.21906" width="79.86797" height="225.26844"/>
        <path d="M752.39397,2.21906h-134.81975v225.26844h134.81975c81.23307,0,139.59812-40.9579,139.59812-112.63445S833.62704,2.21906,752.39397,2.21906ZM742.49585,176.63149h-44.71242V53.07507h44.71242c38.5686,0,67.58044,20.13759,67.58044,61.77798s-29.01184,61.77844-67.58044,61.77844Z"/>
        <polygon points="997.45863 140.7931 1131.59565 140.7931 1131.59565 89.59573 997.45863 89.59573 997.45863 54.44052 1141.83519 54.44052 1141.83519 2.21906 917.59078 2.21906 917.59078 227.4875 1143.54177 227.4875 1143.54177 175.26604 997.45863 175.26604 997.45863 140.7931"/>
        <path d="M105.12524,267.8613L0,493.12974h79.86791l22.12774-46.76036h114.53257l21.71024,46.76036h82.93959l-105.46643-225.26844h-110.58639ZM160.41849,319.05867l34.37388,78.84377h-70.31499l33.89317-78.84377h2.04794Z"/>
        <polygon points="693.89479 267.8613 634.8473 436.81263 576.48231 267.8613 490.81199 267.8613 431.08178 437.83648 372.37543 267.8613 281.9268 267.8613 376.47137 493.12974 479.54861 493.12974 515.38677 396.87881 532.79392 337.83093 534.84175 337.83093 552.5902 396.87881 588.08706 493.12974 688.09244 493.12974 775.46934 267.8613 693.89479 267.8613"/>
        <path d="M844.75636,267.8613l-105.12524,225.26844h79.86791l22.12774-46.76036h114.53257l21.71024,46.76036h82.93959l-105.46643-225.26844h-110.58639ZM900.0495,319.05867l34.374,78.84377h-70.31499l33.89317-78.84377h2.04783Z"/>
        <polygon points="1353.31687 267.8613 1261.50284 267.8613 1152.96439 368.86247 1152.96439 267.8613 1073.09665 267.8613 1073.09665 493.12974 1152.96439 493.12974 1152.96439 440.66569 1194.16328 402.98148 1264.5747 493.12974 1358.43655 493.12974 1253.26541 359.14042 1353.31687 267.8613"/>
        <polygon points="1451.95698 406.43534 1586.09411 406.43534 1586.09411 355.23796 1451.95698 355.23796 1451.95698 320.08276 1596.33347 320.08276 1596.33347 267.8613 1372.08906 267.8613 1372.08906 493.12974 1598.04023 493.12974 1598.04023 440.90828 1451.95698 440.90828 1451.95698 406.43534"/>
        <path d="M1786.10517,352.16617l-48.46682-4.77838c-21.50303-2.04771-42.66448-3.0718-42.66448-14.33524,0-13.31116,17.40715-18.08976,43.68822-18.08976,46.07764,0,73.04177,10.92231,92.49675,29.01184l43.00572-45.73627c-31.74228-24.91596-78.16128-37.20349-121.16711-37.20349-92.15504,0-134.81958,34.81419-134.81958,78.84411,0,38.22723,32.76619,58.70618,95.2269,64.50864l49.14955,4.43701c22.52678,2.04794,36.52077,5.80223,36.52077,17.74851,0,16.38307-30.0357,18.43101-54.61053,17.74851-28.32924-.68272-64.16728-6.14382-93.52049-36.17952l-48.80824,42.66448c34.13152,31.40092,85.67026,48.12558,138.9158,49.1492,76.4547,1.36545,137.54995-29.01162,137.54995-78.84377,0-33.1075-18.77214-61.77809-92.4964-68.94589Z"/>
      </g>
      <path class="d" d="M1417.24122,0c127.53598,0,230.92295,115.46148,230.92295,115.46148,0,0-103.38698,115.46148-230.92295,115.46148s-230.92295-115.46148-230.92295-115.46148c0,0,103.38698-115.46148,230.92295-115.46148ZM1417.24,183.01291c25.30606,0,45.78248-21.57683,45.78248-48.22226,0-32.28734-45.78248-86.88313-45.78248-86.88313,0,0-45.78187,54.59579-45.78187,86.88313,0,26.64543,20.47639,48.22226,45.78187,48.22226Z"/>
    </g>
  </g>
</svg>